<?xml version="1.0" encoding="utf-8"?>
<!-- Generator: Adobe Illustrator 19.1.0, SVG Export Plug-In . SVG Version: 6.00 Build 0)  -->
<svg version="1.1" xmlns="http://www.w3.org/2000/svg" xmlns:xlink="http://www.w3.org/1999/xlink" x="0px" y="0px"
	 viewBox="0 0 222.7 188.9" style="enable-background:new 0 0 222.7 188.9;" xml:space="preserve">
<style type="text/css">
	.st0{fill:#FCEC7B;}
	.st1{fill:#FFFFFF;stroke:#0B0B0B;stroke-width:5;stroke-miterlimit:10;}
	.st2{fill:#FFBA00;}
	.st3{fill:#0B0B0B;}
	.st4{fill:#E25A88;}
</style>
<g id="Background">
</g>
<g id="Objects">
	<ellipse class="st0" cx="112" cy="95.4" rx="42" ry="37"/>
	<path class="st1" d="M35.4,48.6C51.7,38.1,45.8,19.9,60.6,8.9C71.5,0.7,85.8,2.5,89.3,3c19.4,2.4,22.7,16.6,39.8,16.7
		c11.7,0.1,12.2-6.5,26.1-7.1c16.3-0.7,29,7.7,33.7,11.4c4.1,3.1,21.2,16.3,19.9,32.2c-0.9,10.5-9.2,13.5-8.4,24.2
		c0.5,7.4,4.8,10.4,9.5,17.9c1.1,1.8,14.7,24,8.7,45.7c-4.3,15.7-18.6,30.6-34.8,33.5c-17.6,3.2-24.3-10.1-43.4-5.8
		c-13.9,3.1-12.7,10.7-26.9,13.8c-14,3.1-32.9-0.3-45.4-11.5c-8.7-7.8-9.8-15.2-19-17.7c-7.5-2-10,2.1-18.6,1.3
		c-11.1-1-24.4-9.2-27.3-20.1C-1,122,15.8,101.1,15.8,101.1l0,0c0,0-8.4-10.3-9.2-20.1C5.4,68.1,17.6,57.6,19.1,56.4
		C25.8,50.8,28.6,52.9,35.4,48.6z"/>
	
		<ellipse transform="matrix(0.9952 9.828722e-02 -9.828722e-02 0.9952 10.238 -11.118)" class="st2" cx="118" cy="98.4" rx="42" ry="37"/>
	<g>
		<circle class="st3" cx="95" cy="92.4" r="5.5"/>
		<circle class="st3" cx="135.5" cy="92.4" r="5.5"/>
	</g>
	<path class="st4" d="M135.7,103c-3.9,10.8-10.3,20.4-20.1,20.3c-11.1-0.1-17.9-9.5-20.1-20.3c-1.5-7.7,4.5,16,19.2,16.2
		C127.7,119.5,138.3,95.9,135.7,103z"/>
</g>
</svg>
