<?xml version="1.0" encoding="utf-8"?>
<!-- Generator: Adobe Illustrator 19.1.0, SVG Export Plug-In . SVG Version: 6.00 Build 0)  -->
<svg version="1.1" id="Layer_1" xmlns="http://www.w3.org/2000/svg" xmlns:xlink="http://www.w3.org/1999/xlink" x="0px" y="0px"
	 viewBox="0 0 262.3 255.6" style="enable-background:new 0 0 262.3 255.6;" xml:space="preserve">
<style type="text/css">
	.st0{fill:#FFFFFF;stroke:#717070;stroke-width:5;stroke-miterlimit:10;}
	.st1{fill:#03508E;}
	.st2{fill:#126CAC;}
	.st3{fill:#1F83C7;}
	.st4{fill:#2D9CD8;}
	.st5{fill:#E14727;}
	.st6{fill:#070707;}
	.st7{fill:#E66B28;}
	.st8{fill:#090B0B;}
	.st9{fill:#FFFFFF;}
	.st10{fill:#5E1412;}
	.st11{fill:#221F20;}
	.st12{fill:#EDEDEF;}
	.st13{fill:#D14B29;}
	.st14{fill:#E45B28;}
	.st15{fill:#E8E3E1;}
	.st16{fill:#E97440;}
	.st17{fill:#D2CBC8;}
	.st18{fill:#E5F3F2;}
	.st19{fill:#D87229;}
	.st20{fill:#614B95;}
	.st21{fill:#F0A225;}
	.st22{fill:#DC8729;}
	.st23{fill:#E38C28;}
	.st24{fill:#C9782C;}
	.st25{fill:#48377E;}
	.st26{fill:#191918;}
	.st27{fill:#E4C42B;}
	.st28{fill:#C5BA34;}
	.st29{fill:#EAE12E;}
	.st30{fill:#DBCC2C;}
	.st31{fill:#CCB731;}
	.st32{fill:#C5B532;}
	.st33{fill:#BFB234;}
	.st34{fill:#E1CB32;}
	.st35{fill:none;stroke:#E5F3F2;stroke-miterlimit:10;}
	.st36{fill:#2789C9;}
</style>
<path class="st0" d="M27.6,20.1c-0.2,5.9,17.8,7.6,19.5,16c1.2,5.8-6,11.4-11,16c0,0-13.6,12.6-27.5,45.5c-17.2,40.6,7.1,86.7,10,92
	c12.4,22.9,29.3,36.1,38,42c25.7,17.6,50.8,20,62,21c12.4,1.1,49.8,2.6,86.5-21c10-6.4,29.4-19.3,42.5-44.5
	c13.4-25.7,12.5-49.6,12-60c-0.7-13.6-1.4-29.4-11-45.5c-7.5-12.6-11.6-19.9-17.5-27c-10-12-16.5-11.9-17.5-17.5
	c-2-11.4,18.9-11.7,18-19.5c-2.8-24.9-171.3-13.9-197-3.5C33.2,14.7,27.7,16.9,27.6,20.1z"/>
<g>
	<path class="st1" d="M224.1,61.4c-10.7,0.6-16.1,5.5-20.8,10.3c-4.4,4.5-8.2,8.4-15.9,8.4c-7.7,0-11.5-3.9-15.9-8.4
		c-4.8-4.9-10.2-10.3-20.8-10.3c-10.7,0-16.1,5.5-20.8,10.3c-4.4,4.5-8.2,8.4-15.9,8.4c-7.7,0-11.5-3.9-15.9-8.4
		C93.1,66.9,87.7,61.4,77,61.4c-10.7,0-16.1,5.5-20.8,10.3c-4.4,4.5-8.2,8.4-15.9,8.4c-7.7,0-7.9-3.5-13.4-6.7c-3.6-2.1,4.4,2.6,0,0
		l-4,5.8c0.6,0.4-4.4-4.4,0,0c4.8,4.9,6.7,6.7,17.4,6.7c10.7,0,16.1-5.5,20.8-10.3c4.4-4.5,8.2-8.4,15.9-8.4
		c7.7,0,11.5,3.9,15.9,8.4c4.8,4.8,10.2,10.3,20.8,10.3c10.7,0,16.1-5.5,20.8-10.3c4.4-4.5,8.2-8.4,15.9-8.4
		c7.7,0,11.5,3.9,15.9,8.4c4.8,4.8,10.2,10.3,20.8,10.3c10.7,0,16.1-5.5,20.8-10.3c4.4-4.5,8.2-8.4,15.9-8.4c7.7,0,6-2.6,10.2,2
		c3.9,4.1-2.4-5.2-1.2-4.5C227.5,60.9,235.7,60.8,224.1,61.4z"/>
	<path class="st2" d="M245,107.4c-4.8-4.8-10.2-10.3-20.8-10.3c-10.7,0-16.1,5.5-20.8,10.3c-4.4,4.5-8.2,8.4-15.9,8.4
		c-7.7,0-11.5-3.9-15.9-8.4c-4.8-4.9-10.2-10.3-20.8-10.3c-10.7,0-16.1,5.5-20.8,10.3c-4.4,4.5-8.2,8.4-15.9,8.4
		c-7.7,0-11.5-3.9-15.9-8.4C93.1,102.5,87.7,97,77,97c-10.7,0-16.1,5.5-20.8,10.3c-4.4,4.5-8.2,8.4-15.9,8.4
		c-7.7,0-11.5-3.9-15.9-8.4c-4.7-4.8-2.4-9.4-12.9-9.4l-2.5,4.8c7.6,0.1,6.1,4,10.5,8.5c4.8,4.9,10.2,10.3,20.8,10.3
		c10.7,0,16.1-5.5,20.8-10.3c4.4-4.5,8.2-8.4,15.9-8.4c7.7,0,11.5,3.9,15.9,8.4c4.8,4.9,10.2,10.3,20.8,10.3
		c10.7,0,16.1-5.5,20.8-10.3c4.4-4.5,8.2-8.4,15.9-8.4c7.7,0,11.5,3.9,15.9,8.4c4.8,4.9,10.2,10.3,20.8,10.3
		c10.7,0,16.1-5.5,20.8-10.3c4.4-4.5,8.2-8.4,15.9-8.4c7.7,0,11.5,3.9,15.9,8.4c4.7,4.8,6.2,10,16.8,10l-0.8-5.5
		C248.5,115.6,249.4,111.8,245,107.4z"/>
	<path class="st3" d="M245,142c-4.8-4.9-10.2-10.3-20.8-10.3c-10.7,0-16.1,5.5-20.8,10.3c-4.4,4.5-8.2,8.4-15.9,8.4
		c-7.7,0-11.5-3.9-15.9-8.4c-4.8-4.9-10.2-10.3-20.8-10.3c-10.7,0-16.1,5.5-20.8,10.3c-4.4,4.5-8.2,8.4-15.9,8.4
		c-7.7,0-11.5-3.9-15.9-8.4c-4.8-4.9-10.2-10.3-20.8-10.3c-10.7,0-16.1,5.5-20.8,10.3c-4.4,4.5-8.2,8.4-15.9,8.4
		c-7.7,0-11.5-3.9-15.9-8.4c-4.7-4.8-9.1-10.2-19.7-10.3l0.5,5.8c7.6,0.1,9.9,3.9,14.3,8.3c4.8,4.8,10.2,10.3,20.8,10.3
		c10.7,0,16.1-5.5,20.8-10.3c4.4-4.5,8.2-8.4,15.9-8.4c7.7,0,11.5,3.9,15.9,8.4c4.8,4.8,10.2,10.3,20.8,10.3
		c10.7,0,16.1-5.5,20.8-10.3c4.4-4.5,8.2-8.4,15.9-8.4c7.7,0,11.5,3.9,15.9,8.4c4.8,4.8,10.2,10.3,20.8,10.3
		c10.7,0,16.1-5.5,20.8-10.3c4.4-4.5,8.2-8.4,15.9-8.4c7.7,0,11.5,3.9,15.9,8.4c4.7,4.8,5,8.9,15.5,8.9l0.8-5.2
		C248.8,149.4,249.4,146.4,245,142z"/>
	<path class="st4" d="M233,182c-10.7,0-16.1,5.5-20.8,10.3c-4.4,4.5-8.2,8.4-15.9,8.4c-7.7,0-11.5-3.9-15.9-8.4
		c-4.8-4.9-10.2-10.3-20.8-10.3c-10.7,0-16.1,5.5-20.8,10.3c-4.4,4.5-8.2,8.4-15.9,8.4s-11.5-3.9-15.9-8.4
		c-4.8-4.9-10.2-10.3-20.8-10.3s-16.1,5.5-20.8,10.3c-4.4,4.5-8.2,8.4-15.9,8.4c-7.7,0-11.5-3.9-15.9-8.4
		c-4.8-4.9-5.1-10.1-15.7-10.1c-0.3,0,0.3-0.1,0,0l3.2,6c0,0,0,0,0,0c-0.1,0-3.5-0.5-3.3-0.5c7.7,0,6.4,3.9,10.8,8.4
		c4.8,4.8,10.2,10.3,20.8,10.3c10.7,0,16.1-5.5,20.8-10.3c4.4-4.5,8.2-8.4,15.9-8.4c7.7,0,11.5,3.9,15.9,8.4
		c4.8,4.8,10.2,10.3,20.8,10.3s16.1-5.5,20.8-10.3c4.4-4.5,8.2-8.4,15.9-8.4c7.7,0,11.5,3.9,15.9,8.4c7.4,7.5,7.5,10.3,20.8,10.3
		c10.7,0,16.1-5.5,20.8-10.3c4.4-4.5,8.2-8.4,15.9-8.4c7.7,0,3,1.5,10.7,2.8c0,0,2.4-6,2.2-5.3C245.6,185.9,243.6,182,233,182z"/>
</g>
<g>
	<path class="st5" d="M143.6,209.5c-3.6-0.6-10.4,0.1-14,0.5c-3.5,0.4-5.6,0.9-12.1,3.9c-5.1,2.4-8.3,3.7-10.8,3.8
		c-2.5,0.1-2.7-0.2-2.7-0.2c0,0-0.1,0-0.1,0c0,0,1-0.7,1.6-1.2c0.5-0.5,0.8-1,1.5-1.5c0.7-0.5-0.2-0.7,0.9-1.4
		c1.2-0.7,0.9-0.6,1.5-1.3c0.6-0.7,0.8-0.3,1.5-1.2c0.7-0.9,0.5-0.1,1.2-0.9c0.7-0.9,0.7-0.2,1.6-0.8c0.8-0.6,1.3,0.2,2-0.4
		c0.7-0.6,1.2-0.2,1.7-0.3c0.5-0.1,0.3-0.5,0.8-0.4c0.5,0.1,2.2,0.9,3.9,1.3c1.7,0.4,2.7-0.5,3.4-1c0.7-0.5,1.4-1.1,1.8-1.8
		c0.4-0.7,0.3-0.5,1-1.1c0.7-0.6,1.4-0.4,2.4-1.1c1-0.7,1-0.2,2.1-0.8c1.1-0.6,1.3,0.4,2.2,0.1c0.9-0.3,1.5,0.2,2,0
		c0.5-0.2,1.6,0.5,2.5,0.9c0.9,0.4,4.3,5,4.3,5v0C143.8,209.6,143.7,209.5,143.6,209.5z"/>
	<g>
		<g>
			<g>
				<path class="st5" d="M109.9,228.8c0.4,0.2,0.9,0.4,1.4,0.6c3.7,1.6,9.7,5.7,13.3,6.2c1.1,0.1,2.5,0.2,3.9,0.3
					c-0.7,0.6-4.8,4.4-8.2,4.5c0,0-1.2,0.2-2,0.1c-0.8-0.1-1.3-0.3-2.1-0.2c-0.8,0-1.6-0.3-1.9-0.5c-0.3-0.2-0.9-0.1-1.5-0.7
					c-0.6-0.6-1.1-0.2-1.7-0.7c-0.6-0.5-2.2-0.4-2.4-1.3c-0.2-0.9-0.8-0.3-1.1-1.3c-0.4-1-0.2-1.3-0.6-1.9c-0.4-0.6,0-1.6,0.3-2.1
					C107.4,231.3,108.9,229.2,109.9,228.8z"/>
				<path class="st6" d="M108.6,237.1c-0.2-0.9-0.8-0.3-1.1-1.3c-0.4-1-0.2-1.3-0.6-1.9c-0.4-0.6,0-1.6,0.3-2.1
					c0-0.1,0.1-0.2,0.2-0.3c-0.5,0.7,1,3.7,1.8,4.1c0.8,0.4,2.5,1.8,3.6,2.3c1.1,0.6,2.5,1.2,3.6,1.2c1,0,1.1,0.4,3.6,0.5
					c2.5,0.1,6.4-2.1,6.4-2.1l0,0c-1.7,1.3-4,2.7-6.1,2.8c0,0-1.2,0.2-2,0.1c-0.8-0.1-1.3-0.3-2.1-0.2c-0.8,0-1.6-0.3-1.9-0.5
					c-0.3-0.2-0.9-0.1-1.5-0.7c-0.6-0.6-1.1-0.2-1.7-0.7C110.4,237.8,108.8,237.9,108.6,237.1z"/>
				<g>
					<g>
						<path class="st7" d="M120.4,239.5c2.4-0.6,5.5-3.2,5.5-3.3l-0.1-0.1C125.9,236.2,122.8,238.9,120.4,239.5L120.4,239.5z"/>
					</g>
					<g>
						<path class="st7" d="M117.1,239.2c3.6-0.8,6-3.4,6-3.4l-0.1-0.1C123,235.8,120.6,238.3,117.1,239.2L117.1,239.2z"/>
					</g>
					<g>
						<path class="st7" d="M114.2,238.3c2.9-0.2,6-3.2,6.1-3.2l-0.1-0.1C120.1,235.1,117,238,114.2,238.3L114.2,238.3z"/>
					</g>
					<g>
						<path class="st7" d="M111.5,237.2c1.4-0.1,3-1,4.2-1.7c1.2-0.7,2.2-1.5,2.2-1.5l-0.1-0.1C117.7,234,114,236.8,111.5,237.2
							L111.5,237.2z"/>
					</g>
					<g>
						<path class="st7" d="M109.6,235.7c2.4-0.4,5.8-3,5.8-3l-0.1-0.1C115.3,232.6,111.9,235.2,109.6,235.7L109.6,235.7z"/>
					</g>
					<g>
						<path class="st7" d="M108.2,233.7c1.6-0.1,5-2,5.1-2.1l0-0.1c0,0-3.7,2.2-5.2,2.1l0,0.1C108.1,233.7,108.1,233.7,108.2,233.7z
							"/>
					</g>
					<g>
						<path class="st7" d="M107.3,232.2c1.6-0.1,4-1.8,4.1-1.8l0-0.1C111.3,230.4,108.9,232,107.3,232.2L107.3,232.2z"/>
					</g>
				</g>
			</g>
			<g>
				<path class="st6" d="M140.4,237.2c0,0-1.7,4.3-3.1,5.8c-1.4,1.5-5.9,3.3-7,2.9c-1.2-0.4-2.9-3-3-4.6c-0.1-1.6,0.8-4.2,1.3-4.5
					c0.5-0.3,2.1-0.5,4.1-0.3c2,0.2,3.7,0.6,4.4,0.6C137.8,237.2,140.4,237.2,140.4,237.2z"/>
				<path class="st5" d="M139.8,237.7c0,0-1.6,4.4-2.8,5.2c-1.2,0.9-3.8,2.1-4.7,2.1c-1,0.1-1.2-0.6-1.2-1c0,0-1.2,0.1-1.1-1.3
					c0,0-1.2-0.1-1-1.4c0,0-1-0.6-0.2-1.7c0,0-0.4-0.7,0-1.6c0,0,1.1-1.1,2.3-1.3c1.2-0.2,2.8,0.4,3.7,0.6
					C135.6,237.5,139.8,237.7,139.8,237.7z"/>
				<g>
					<g>
						<path class="st7" d="M129.1,239.8c1.9-0.5,3-1.1,3.6-1.5c0.7-0.5,0.9-0.8,0.9-0.8l-0.1,0c0,0-0.3,0.3-0.9,0.8
							C132,238.6,130.9,239.2,129.1,239.8L129.1,239.8z"/>
					</g>
					<g>
						<path class="st7" d="M130,241.1c3.6-1,6-3.4,6-3.4l-0.1-0.1C135.9,237.7,133.5,240.1,130,241.1L130,241.1z"/>
					</g>
					<g>
						<path class="st7" d="M130.8,242.9c3.6-1.1,6.8-4.9,6.8-4.9l-0.1-0.1C137.5,238,134.4,241.8,130.8,242.9L130.8,242.9z"/>
					</g>
					<g>
						<path class="st7" d="M132.6,244.1c4.2-1.4,6-5.9,6.1-6l-0.1,0C138.5,238.1,136.7,242.7,132.6,244.1L132.6,244.1z"/>
					</g>
				</g>
			</g>
		</g>
		<g>
			<path class="st6" d="M128.4,205.5c0.7-0.6,1.4-0.4,2.4-1.1c1-0.7,1-0.2,2.1-0.8c1.1-0.6,1.3,0.4,2.2,0.1c0.9-0.3,1.5,0.2,2,0
				c0.5-0.2,1.6,0.5,2.5,0.9c0.2,0.1,0.5,0.4,0.9,0.8c-0.5-0.1-1.5-0.4-2-0.7c-0.7-0.4-1.6-0.5-2.5-0.5c-0.9,0-2.4-0.1-3.3,0.2
				c-1,0.4-3.9,1.1-5.1,1.8C127.8,205.9,127.9,205.9,128.4,205.5z"/>
			<path class="st6" d="M103.9,217.5c0.2-0.2,1.1-0.8,1.6-1.2c0.5-0.5,0.8-1,1.5-1.5c0.7-0.5-0.2-0.7,0.9-1.4
				c1.2-0.7,0.9-0.6,1.5-1.3c0.6-0.7,0.8-0.3,1.5-1.2c0.7-0.9,0.5-0.1,1.2-0.9c0.7-0.9,0.7-0.2,1.6-0.8c0.8-0.6,1.3,0.2,2-0.4
				c0.7-0.6,1.2-0.2,1.7-0.3c0.5-0.1,0.3-0.5,0.8-0.4c0.3,0,0.9,0.3,1.6,0.6v0c0,0-1.5-0.6-2.2,0c-0.7,0.6-0.8,0.5-1.9,0.7
				c-1.2,0.3-2,0.6-2.9,1.2c-0.9,0.6-2.2,1.5-3.1,2.2c-0.9,0.7-1.4,1.6-2.1,1.8c-0.7,0.2-1.8,2.1-2,2.5c-0.2,0.4-0.3,0.6-0.3,0.6
				L103.9,217.5z"/>
			<g>
				<g>
					<g>
						<path class="st7" d="M141.9,209.3L141.9,209.3c0-0.1-2.6-3.4-3.7-4.6l-0.1,0.1C139.2,205.9,141.9,209.3,141.9,209.3z"/>
					</g>
					<g>
						<path class="st7" d="M140.2,209.3L140.2,209.3c0-0.1-2.6-4-3.9-4.9l0,0.1C137.5,205.4,140.2,209.3,140.2,209.3z"/>
					</g>
					<g>
						<path class="st7" d="M138.6,209.3L138.6,209.3c0-0.1-2.5-4-4-4.9l0,0.1C136.1,205.4,138.6,209.3,138.6,209.3z"/>
					</g>
					<g>
						<path class="st7" d="M137.4,209.3L137.4,209.3c0-0.1-2.9-3.7-4.3-4.6l0,0.1C134.4,205.6,137.3,209.3,137.4,209.3z"/>
					</g>
					<g>
						<path class="st7" d="M136,209.4L136,209.4c0-0.1-3-3.3-4.3-4.5l-0.1,0.1C133,206.2,136,209.4,136,209.4z"/>
					</g>
					<g>
						<path class="st7" d="M134.1,209.6L134.1,209.6c0-0.1-2.5-3.2-4-4.3l0,0.1C131.5,206.4,134.1,209.5,134.1,209.6z"/>
					</g>
					<g>
						<path class="st7" d="M132.4,209.6L132.4,209.6c-0.1-0.2-3.2-3.2-4-3.6l0,0.1C129.2,206.4,132.4,209.5,132.4,209.6z"/>
					</g>
					<g>
						<path class="st7" d="M130.8,209.9L130.8,209.9c0-0.1-2.1-2.1-2.7-2.5l0,0.1C128.6,207.8,130.7,209.8,130.8,209.9z"/>
					</g>
				</g>
				<g>
					<g>
						<path class="st7" d="M121,212L121,212c0-0.1-3.7-2.3-4.9-2.8l0,0.1C117.3,209.8,121,212,121,212z"/>
					</g>
					<g>
						<path class="st7" d="M119.4,213L119.4,213c-0.1-0.2-4.1-2.8-5.3-3l0,0.1C115.3,210.4,119.3,213,119.4,213z"/>
					</g>
					<g>
						<path class="st7" d="M117.7,213.6C117.7,213.6,117.7,213.6,117.7,213.6L117.7,213.6L117.7,213.6
							C117.7,213.5,117.7,213.5,117.7,213.6c-0.1-0.1-0.9-0.4-1.7-0.8c-1.3-0.6-3.1-1.5-4-1.7l0,0.1c0.9,0.3,2.7,1.1,4,1.7
							C117.2,213.4,117.6,213.6,117.7,213.6z"/>
					</g>
					<g>
						<path class="st7" d="M115.8,214.7L115.8,214.7c-0.2-0.2-3.4-2.4-5-2.4l0,0.1C112.3,212.4,115.4,214.4,115.8,214.7z"/>
					</g>
					<g>
						<path class="st7" d="M113.7,215.5L113.7,215.5c0-0.1-2.2-1.5-4.5-1.8l0,0.1C111.4,214,113.6,215.5,113.7,215.5z"/>
					</g>
					<g>
						<path class="st7" d="M111.1,216.3L111.1,216.3c-0.1-0.1-2.7-1.6-3.8-1.6l0,0.1C108.3,214.8,111,216.3,111.1,216.3z"/>
					</g>
					<g>
						<path class="st7" d="M109,217.3L109,217.3c0-0.1-1.3-1.1-2.6-1.3l0,0.1C107.7,216.2,109,217.2,109,217.3z"/>
					</g>
				</g>
			</g>
			<g>
				<path class="st8" d="M103.5,221.3c-0.3-1.3-0.6-2.9-1.7-4.2c-1.1-1.4-5.5-4.6-7.7-5.7c-2.2-1.1-9.6-4.2-9.6,0.3
					c0,0-1.9,0.1-1.6,2.7c0,0-1.7,2-0.5,4.2c0,0-1.4,2.2-0.1,4.1c0,0-1.2,3.1,1.1,4.8c0,0,0.4,3.6,2.8,4.3c0,0,0.3,2.4,3.7,2.5
					c0,0,10.9-4.2,12.1-6.5C103.2,225.3,103.7,222.6,103.5,221.3z"/>
				<path class="st7" d="M83.2,217.1c0.2-4.5,2.5-6.9,2.9-7c0.3-0.4,5.8,0.8,8.9,2.2c1.1,0.5,4.3,2.2,6.5,4.5
					c1.9,0.8,3.3,0.7,3.3,0.7c2.6,0.6,6.1-0.6,12.6-3.6c6.5-3,8.6-3.6,12.1-3.9c3.5-0.4,10.4-1,14-0.5c3.5,0.6,7.3,2.7,10.9,4.9
					c3.6,2.1,5.9,4.7,6.5,5.9c0.6,1.2,1.8,2.7,2.2,3c0.4,0.3,0.6,0.5,0.4,1.2c-0.1,0.7-0.9,1.2-0.9,1.2c2.6,0.2,0.4,2.5-1.4,3.6
					c-1.8,1.1-5.5,4.7-11.4,6.4c-5.9,1.7-9.7,1.6-13.1,1.5c-3.5-0.1-9.7-0.9-13.3-1.6c-3.6-0.7-9.2-4.3-12.8-6.2
					c-3.6-1.8-5.9-2.1-7.9-1.7c-0.2,0-0.4,0.1-0.6,0.2c-0.7,0.8-2.2,1.8-4,2.7c-4.3,1.7-8.6,2.3-8.6,2.3
					C82.5,231.7,83.1,221.6,83.2,217.1z"/>
				<g>
					<path class="st9" d="M131.6,237c0,0-0.5-3.3,0.4-4.9c0.9-1.6,8.1-9.7,8-10c-0.1-0.4-0.6-2.8-2.2-3.8c-1.6-1-3.2-1.8-4-2.5
						c-0.8-0.7-1.4-1.7-2.4-2.2c-1-0.5-3.3-2.9-3-3.4c0.2-0.5-0.9-2.8-0.8-3.7c0,0-1,2.1-3.5,3.1c-1.6,0.7-4.6-1.1-5-1.1
						c0,0,1,1.4,3.2,3.3c0,0,1.3,2.3,1.2,5.1c-0.1,2.8-0.7,3.8-0.8,5.8c-0.1,2,1,4.1,1.2,6.1c0.3,2-0.3,5.5-0.1,6.8L131.6,237z"/>
					<path class="st9" d="M155.6,215.1c0,0-0.6,1.9-2.4,3.7c-1.8,1.8-2.7,2.9-2.9,5.2c-0.2,2.3,0.6,5,1.5,6.6c1,1.7,2.3,3.4,2.3,3.4
						l-1.4,0.7c0,0-3.5-2.6-4.6-4.5c-1.1-1.9-1-7.2,0-10.1c1-2.9,3.5-6.1,4.3-6.8L155.6,215.1z"/>
					<g>
						<g>
							<circle class="st10" cx="156.3" cy="220.8" r="2.3"/>
							<circle class="st11" cx="156.3" cy="220.8" r="1.3"/>
							<circle class="st12" cx="156.4" cy="220.3" r="0.3"/>
						</g>
						<path class="st13" d="M159.1,221.5c0,0-0.7,2.2-2.8,2.2c-2.1,0-2.9-1.8-2.9-2.9c0,0-0.6,1.7,0.7,2.9c1.3,1.3,3.5,0.8,4.2,0
							C159.3,222.8,159.1,221.5,159.1,221.5z"/>
					</g>
					<g>
						<path class="st14" d="M161,226.4c0.8,0,1.7-0.7,1.8-0.7l0,0c0,0-1.1,0.5-1.8,0.5L161,226.4C160.9,226.4,161,226.4,161,226.4z"
							/>
					</g>
					<g>
						<g>
							<path class="st5" d="M99.9,216.7L99.9,216.7c0-0.1-6.8-4.8-12.3-5.5l0,0.1C93,212,99.8,216.7,99.9,216.7z"/>
						</g>
						<g>
							<path class="st5" d="M99.9,217.1L99.9,217.1c0-0.1-7.7-3.6-13.1-3.6c-0.1,0-0.1,0-0.2,0l0,0.1c0.1,0,0.1,0,0.2,0
								C92.2,213.7,99.8,217.1,99.9,217.1z"/>
						</g>
						<g>
							<path class="st5" d="M100.2,217.8L100.2,217.8c-0.1-0.1-8.7-2.6-13.5-2.5l0,0.1C91.4,215.3,100.1,217.8,100.2,217.8z"/>
						</g>
						<g>
							<path class="st5" d="M100.2,218.7l0-0.1c-0.1,0-7.3-1.3-13.5-1.2l0,0.1C92.9,217.4,100.1,218.6,100.2,218.7z"/>
						</g>
						<g>
							<path class="st5" d="M100.2,219.5l0-0.1c-0.1,0-8.7-0.8-13.5,0l0,0.1C91.5,218.7,100.1,219.5,100.2,219.5z"/>
						</g>
						<g>
							<path class="st5" d="M86.7,222.3c4.6-1.6,13.4-1.8,13.5-1.8l0-0.1C100.1,220.4,91.3,220.6,86.7,222.3L86.7,222.3z"/>
						</g>
						<g>
							<path class="st5" d="M86.7,224.1c7.2-2.2,13.4-2.7,13.5-2.7l0-0.1C100.1,221.3,93.9,221.9,86.7,224.1L86.7,224.1z"/>
						</g>
						<g>
							<path class="st5" d="M87.1,226.2c5.3-2.6,13-3.9,13-3.9l0-0.1C100.1,222.2,92.5,223.4,87.1,226.2L87.1,226.2z"/>
						</g>
						<g>
							<path class="st5" d="M87.6,228.1c3.9-2.6,12.5-4.7,12.6-4.7l0-0.1C100.1,223.3,91.5,225.4,87.6,228.1L87.6,228.1z"/>
						</g>
						<g>
							<path class="st5" d="M88.1,230c6-3.6,12-5.4,12.1-5.4l0-0.1C100.1,224.6,94.1,226.4,88.1,230L88.1,230z"/>
						</g>
						<g>
							<path class="st5" d="M89.4,231.5c6.1-3.6,10.8-5.4,10.8-5.4l0-0.1C100.1,226.1,95.5,227.8,89.4,231.5L89.4,231.5z"/>
						</g>
						<g>
							<path class="st5" d="M91.6,232.5c4.2-2.6,8.6-5.1,8.6-5.1l0-0.1C100.1,227.3,95.7,229.8,91.6,232.5L91.6,232.5z"/>
						</g>
					</g>
					<g>
						<path class="st14" d="M104.9,217.5c2.6,0.6,6.1-0.6,12.6-3.6c6.5-3,8.7-3.5,12.2-3.8c3.5-0.4,10.4-1.1,13.9-0.5
							c3.5,0.6,7.3,2.7,10.9,4.9c2.3,1.4,4.1,2.9,5.2,4.2c-0.2,0-0.3,0-0.5-0.1c-0.8-0.4-3.8-2.6-5.8-3.9c-1.9-1.3-3.6-2.8-7.4-3.6
							c-3.8-0.7-8.9-0.8-16.7,0c-7.8,0.8-15.7,6.1-18.5,7.4c-2.8,1.3-5.9,0-5.9,0l-0.7-0.9l0,0C104.6,217.5,104.9,217.5,104.9,217.5
							z"/>
						<path class="st15" d="M155.6,215.1c0,0-0.1,0.3-0.3,0.8c-0.7-0.5-1.3-0.9-1.9-1.3c-0.4-0.3-0.9-0.6-1.3-0.9
							c0.2-0.2,0.3-0.4,0.5-0.5c0,0,0,0,0,0c0,0,0.8,0.4,1.6,0.9C155.1,214.7,155.6,215.1,155.6,215.1z"/>
						<path class="st15" d="M128.4,210.1L128.4,210.1c-0.1,0.2,0.1,0.5,0.4,1c-2.1,0.2-4.1,0.8-6.1,1.6c-0.2-0.5-0.4-0.8-0.4-0.8
							C124.9,210.8,126.5,210.4,128.4,210.1z"/>
					</g>
					<path class="st9" d="M102.9,227.7c0.4-0.7,1.2-2.3,1.5-4.2c0.4-2.6-0.9-5.3-1.4-6.2c0.7,0.2,1.2,0.2,1.6,0.2
						c0.4,0.3,1.8,1.7,2.3,3c0.4,0.9,0.9,2.5,0.5,4.4c-0.3,1.3-0.7,2.4-0.9,2.9C105.1,227.6,103.9,227.5,102.9,227.7z"/>
					<g>
						<path class="st14" d="M142.3,225.7c0,0,1.2,1.1,0,2.3c-1.2,1.3-1.4,1.1-1.1,2.4c0.3,1.3-0.4,2.7-1.5,3.3
							c-1.1,0.6-6,1.6-6.7,0.8c-0.7-0.8,3.2-3,3.3-4.5c0-1.6,3.6-6,4.1-5.9C140.8,224.2,142.3,225.7,142.3,225.7z"/>
						<path class="st6" d="M142.3,225.7c0,0-2-2-3.5-3.6c-1.5-1.7-5.5-5.1-9.4-1.2c-3.9,3.9-3.8,8.4-1.5,11.6
							c2.3,3.2,8.9,3,11.2,1.7c2.3-1.3,2-3.3,0.4-2.9c0,0,0.6,0.4,0.4,0.8c-0.2,0.4-0.8,1.5-3.1,1.9c-2.3,0.4-4.4,0.3-5-0.6
							c0,0-2-0.1-2-1.5c0,0-1.6-0.6-0.9-2.1c0,0-1-0.9-0.5-2c0,0-0.6-1.9,0.6-2.5c0,0-0.2-1.6,1.5-2c0,0,0.6-1.4,1.9-1.4
							c0,0,0.3-1,1.8-1c0,0,0.8-0.8,2.5,0.4C138.5,222.4,140.5,224.9,142.3,225.7z"/>
						<path class="st16" d="M139.2,226.1c-0.5,0.4-2,1.7-2,2.2c0,0.6,0.8,1.3,0,2.5c-0.6,0.9-2.2,2.5-3.1,3.3
							c-1.1,0-1.9-0.3-2.2-0.8c0,0-2-0.1-2-1.5c0,0-1.6-0.6-0.9-2.1c0,0-1-0.9-0.5-2c0,0-0.6-1.9,0.6-2.5c0,0-0.2-1.6,1.5-2
							c0,0,0.6-1.4,1.9-1.4c0,0,0.3-1,1.8-1c0,0,0.8-0.8,2.5,0.4c1.2,0.9,2.6,2.4,4,3.5c0,0,0,0,0,0
							C140.9,224.8,139.7,225.7,139.2,226.1z"/>
						<g>
							<g>
								
									<rect x="137.1" y="220" transform="matrix(-0.4983 0.867 -0.867 -0.4983 399.1711 215.8127)" class="st5" width="0.1" height="6.7"/>
							</g>
							<g>
								
									<rect x="136" y="220.2" transform="matrix(-0.3898 0.9209 -0.9209 -0.3898 395.5258 186.239)" class="st5" width="0.1" height="7.8"/>
							</g>
							<g>
								<path class="st5" d="M138.8,226.1C138.8,226.1,138.9,226.1,138.8,226.1L138.8,226.1L138.8,226.1L138.8,226.1
									C138.8,226,138.8,226,138.8,226.1c-0.3-0.1-6.1-1.5-8.3-2l0,0.1C131.9,224.5,138.5,226.1,138.8,226.1z"/>
							</g>
							<g>
								
									<rect x="134.1" y="221.8" transform="matrix(-9.217995e-02 0.9957 -0.9957 -9.217995e-02 371.6477 113.3254)" class="st5" width="0.1" height="8.6"/>
							</g>
							<g>
								<rect x="129.9" y="227.1" class="st5" width="8" height="0.1"/>
							</g>
							<g>
								
									<rect x="130.3" y="228.1" transform="matrix(-0.9991 4.127518e-02 -4.127518e-02 -0.9991 276.4776 450.6719)" class="st5" width="6.7" height="0.1"/>
							</g>
							<g>
								
									<rect x="130.2" y="229.2" transform="matrix(-0.9879 0.1551 -0.1551 -0.9879 301.1227 435.0849)" class="st5" width="6.7" height="0.1"/>
							</g>
							<g>
								
									<rect x="130.4" y="230.2" transform="matrix(-0.9632 0.2687 -0.2687 -0.9632 324.6014 416.0065)" class="st5" width="6.9" height="0.1"/>
							</g>
							<g>
								
									<rect x="130.9" y="230.8" transform="matrix(-0.9479 0.3185 -0.3185 -0.9479 334.7692 406.9183)" class="st5" width="6.4" height="0.1"/>
							</g>
							<g>
								
									<rect x="132.2" y="231.6" transform="matrix(-0.8925 0.451 -0.451 -0.8925 359.5891 377.6251)" class="st5" width="5.2" height="0.1"/>
							</g>
						</g>
					</g>
					<g>
						<path class="st13" d="M111.1,227.7c0,0,13.5,5.7,20,6.5c19.4,2.6,31.8-7.4,32.7-8.2l0,0c0.6,0.7-1,2.3-2.4,3.2
							c-1.8,1.1-5.5,4.7-11.4,6.4c-5.9,1.7-9.7,1.6-13.1,1.5c-3.5-0.1-9.7-0.9-13.3-1.6c-3.6-0.7-9.2-4.3-12.8-6.2
							c-2.3-1.1-4.1-1.7-5.6-1.8l0,0C105.2,227.6,106.7,226.1,111.1,227.7z"/>
						<path class="st17" d="M150.5,232.7c0.8-0.2,1.5-0.5,2.3-0.8c0.7,1.1,1.5,1.9,1.5,2c0,0-0.5,0.3-0.8,0.4
							c-0.3,0.1-0.6,0.2-0.6,0.2c0,0-0.1,0-0.1,0C152.7,234.6,151.7,233.8,150.5,232.7z"/>
						<path class="st17" d="M131.5,234.2c-0.1,1,0,2.1,0.1,2.5c-1.7-0.2-3.4-0.4-5-0.7l-2.6-0.5c-0.1-0.7,0-1.9,0.1-3.1
							c2.7,0.8,5.2,1.5,7.1,1.7C131.2,234.2,131.3,234.2,131.5,234.2z"/>
						<path class="st13" d="M100.8,227.8c1.1-1,5.9-0.8,5.9-0.8l-0.1,0.8c-0.2,0-2.2-0.5-3.8,0c-1.6,0.5-0.4,0.1-0.6,0.2
							c-0.7,0.8-2.2,1.8-4,2.7c-4.3,1.7-8.6,2.3-8.6,2.3c-0.3-0.1-1.6-0.4-1.9-0.6c-0.2-0.1,0,0,0,0
							C91.9,233.3,99.7,228.8,100.8,227.8z"/>
						<path class="st17" d="M106.7,227c-0.1,0.3-0.2,0.6-0.3,0.8c-1.3-0.2-2.5-0.3-3.5,0c0.1-0.2,0.2-0.4,0.4-0.7
							C104.9,226.8,106.4,227,106.7,227z"/>
					</g>
				</g>
			</g>
		</g>
	</g>
</g>
<g>
	<g>
		<g>
			<path class="st18" d="M123.9,193.5c-2,0-3.7-1.6-3.7-3.7c0-2,1.6-3.7,3.7-3.7c2,0,3.7,1.6,3.7,3.7
				C127.6,191.9,125.9,193.5,123.9,193.5z M123.9,186.7c-1.7,0-3.1,1.4-3.1,3.1c0,1.7,1.4,3.1,3.1,3.1c1.7,0,3.1-1.4,3.1-3.1
				C127,188.1,125.6,186.7,123.9,186.7z"/>
		</g>
	</g>
	<g>
		<path class="st18" d="M124,203.3c-0.9,0-1.6-0.7-1.6-1.6c0-0.9,0.7-1.6,1.6-1.6c0.9,0,1.6,0.7,1.6,1.6
			C125.6,202.6,124.9,203.3,124,203.3z M124,200.7c-0.6,0-1,0.5-1,1c0,0.6,0.5,1,1,1c0.6,0,1-0.5,1-1
			C125.1,201.2,124.6,200.7,124,200.7z"/>
	</g>
	<g>
		<path class="st18" d="M127.6,198.4c-1.2,0-2.2-1-2.2-2.2c0-1.2,1-2.2,2.2-2.2c1.2,0,2.2,1,2.2,2.2
			C129.8,197.4,128.8,198.4,127.6,198.4z M127.6,194.6c-0.9,0-1.7,0.7-1.7,1.7c0,0.9,0.7,1.7,1.7,1.7c0.9,0,1.7-0.7,1.7-1.7
			C129.2,195.3,128.5,194.6,127.6,194.6z"/>
	</g>
	<g>
		<path class="st18" d="M125.6,184.3c-1.5,0-2.7-1.2-2.7-2.7c0-1.5,1.2-2.7,2.7-2.7c1.5,0,2.7,1.2,2.7,2.7
			C128.4,183.1,127.1,184.3,125.6,184.3z M125.6,179.4c-1.2,0-2.2,1-2.2,2.2c0,1.2,1,2.2,2.2,2.2c1.2,0,2.2-1,2.2-2.2
			C127.8,180.4,126.8,179.4,125.6,179.4z"/>
	</g>
	<g>
		<path class="st18" d="M115.8,182.9c-2.3,0-4.1-1.9-4.1-4.1c0-2.3,1.9-4.1,4.1-4.1c2.3,0,4.1,1.9,4.1,4.1
			C119.9,181,118.1,182.9,115.8,182.9z M115.8,175.1c-2,0-3.6,1.6-3.6,3.6c0,2,1.6,3.6,3.6,3.6c2,0,3.6-1.6,3.6-3.6
			C119.4,176.7,117.8,175.1,115.8,175.1z"/>
	</g>
</g>
<g>
	<g>
		<g>
			<path class="st19" d="M182.3,154.7c0,0,5.4,3.4,7.3,3c0,0,0.3,0,1.3-0.4c0,0,3.6,0.9,5.4,0.7c0,0,5.1,0.2,7.2-0.5
				c2-0.7,6-1.6,6.8-3.1c0.9-1.5,2.4-2.3,1.5-7.1c-0.9-4.8-1.4-6.7-4.4-7.2c0,0-1.9,0.5-2.5,1.2c-0.5,0.7-6.1,8.1-8.6,9.6
				C193.7,152.4,184.9,155.1,182.3,154.7z"/>
			<path class="st20" d="M207.3,140c0,0-1.5,0.4-2.2,1c0.7,0.4,1.9,1.3,2.4,2.2c0.7,1.3,3.1,5.2,3.6,6.8c0.5,1.6-1.8,3.6-3.3,4.6
				c-1.5,1-3.9,1.4-6.1,2c-2.2,0.6-4.2,0.1-6.3-0.2c-2.2-0.2-5.3-0.1-6.7,0.1c-1.3,0.2-5.9-1.6-5.9-1.6c1.4,0.8,5.2,3,6.8,2.7
				c0,0,0.3,0,1.3-0.4c0,0,3.6,0.9,5.4,0.7c0,0,5.1,0.2,7.2-0.5c2-0.7,6-1.6,6.8-3.1c0.9-1.5,2.4-2.3,1.5-7.1
				C210.8,142.5,210.3,140.6,207.3,140z"/>
			<g>
				<g>
					<path class="st21" d="M207.9,145c-2.9-0.7-4-1.4-4.1-1.4l0.1-0.1C203.9,143.5,205,144.3,207.9,145L207.9,145z"/>
				</g>
				<g>
					<path class="st21" d="M209.8,147.3c-4.8-1.1-6.5-2.3-6.5-2.3l0.1-0.1C203.3,144.9,205,146.1,209.8,147.3L209.8,147.3z"/>
				</g>
				<g>
					<path class="st21" d="M211,149.8c-3.1-0.7-5.3-1.6-6.7-2.2c-1.5-0.7-2.2-1.2-2.2-1.2l0.1-0.1c0,0,0.8,0.5,2.2,1.2
						C205.7,148.2,208,149.1,211,149.8L211,149.8z"/>
				</g>
				<g>
					<path class="st21" d="M210.6,152c-4.8-0.8-10-3.8-10-3.9l0-0.1C200.7,148.1,205.9,151.1,210.6,152L210.6,152z"/>
				</g>
				<g>
					<path class="st21" d="M208.7,154c-5.5-1.5-9.5-4.4-9.6-4.4l0.1-0.1C199.2,149.6,203.2,152.4,208.7,154L208.7,154z"/>
				</g>
				<g>
					<path class="st21" d="M205,155.9c-5.4-2-7.4-4.4-7.5-4.4l0.1-0.1C197.6,151.4,199.7,153.8,205,155.9L205,155.9z"/>
				</g>
				<g>
					<path class="st21" d="M200,156.9c-3.1-2.4-4.7-4.4-4.7-4.5l0.1-0.1C195.4,152.4,197,154.5,200,156.9L200,156.9z"/>
				</g>
				<g>
					<path class="st21" d="M196.3,156.5c-2.2-0.8-4.4-2.5-4.4-2.5l0.1-0.1C192,153.9,194.2,155.6,196.3,156.5L196.3,156.5z"/>
				</g>
			</g>
		</g>
		<g>
			<path class="st20" d="M207.7,130.9l0.6-1.2c1.2-2.6,3.8-8.8,3-11.6c-1.1-3.6-7.9-3-9.5-3c-1.6,0-2.7-0.1-4.1-0.2
				c-1.4-0.1-1.9,0.3-2.8-0.3c-0.9-0.5-3.1,0.8-4.4,0.3c-1.3-0.5-3.2,0.6-4.9,0.1c-1.6-0.4-1.3,0.6-3,0c-1.7-0.6-2.8,0.6-3.6,0.2
				c-0.8-0.4-2.6,0.4-3,0.6c-0.4,0.1-1.2,0-2.4-0.3c-1.2-0.3-3.6,1.7-4.4,1.1c-0.8-0.6-2.9,1.3-3.8,1.1c-0.9-0.2-2.5,0.7-3.8,1.1
				c-1.1,0.3-1.1,0.6-2.7,1.5l0.3,0l8.3-2.7l10.6-0.8c0,0,10.2,1,12,1.4c1.8,0.4,12.1,0.7,12.1,0.7l5.2,3.4l-2.7,8.1
				C205.7,130.9,207.7,130.9,207.7,130.9z"/>
			<path class="st19" d="M158.7,120.5c0,0,4.2-0.5,6.1-0.9c1.9-0.4,3.3-0.8,7.3-0.9c4-0.1,3.1-0.2,6.2-0.4c3-0.2,8.2,1.2,9.8,1.2
				c1.6-0.1,13.3,3.2,15.2,6.4c1.9,3.2,1.4,4.8,1.4,4.8s2.4-1.5,2.7-3.4c0.1-0.5,0.7-1.1,0.9-2.4c0,0,0.9-1.4,1.1-2.7
				c0,0,1.3-1.8,0.8-2.9c-0.4-1.1-1.3-2.4-5.4-2.7c0,0-2-0.6-2.9-0.6c-0.9,0-3.1,0.1-4.1-0.1c-1-0.2-2.3-0.4-3.9-0.3
				c-1.6,0.1-4,0.3-5.2,0.2c-1.2-0.1-3.8,0-4.5,0.1c-0.7,0.1-3.5,0.2-4.4,0.2c-0.9,0-2.2,0.4-3.3,0.5c-1.1,0.1-3-0.2-3.9,0.1
				c-0.9,0.3-2.4,1-3.3,1c-0.9-0.1-3.6,0.5-4.3,0.7c-0.7,0.2-2.5,0.8-2.9,1C161.5,119.4,158.7,120.5,158.7,120.5z"/>
			<g>
				<g>
					<path class="st21" d="M174,117.9L174,117.9c0-0.1,3.9-1.4,5.2-1.8l0,0.1C177.9,116.6,174,117.8,174,117.9z"/>
				</g>
				<g>
					<path class="st21" d="M179.2,117.4L179.2,117.4c0-0.1,5.5-1.2,7.7-1.3l0,0.1C184.7,116.4,179.2,117.4,179.2,117.4z"/>
				</g>
				<g>
					<path class="st21" d="M186.2,117.9L186.2,117.9c0-0.1,4.1-1.7,8.2-2.2l0,0.1C190.3,116.3,186.3,117.8,186.2,117.9z"/>
				</g>
				<g>
					<path class="st21" d="M190.8,118.1L190.8,118.1c0-0.1,5-1.5,9.1-2l0,0.1C195.8,116.7,190.8,118.1,190.8,118.1z"/>
				</g>
				<g>
					<path class="st21" d="M193.9,119.2L193.9,119.2c0-0.1,7.3-2.3,11-2.5l0,0.1C201.3,117,194,119.2,193.9,119.2z"/>
				</g>
				<g>
					<path class="st21" d="M198.7,120.5L198.7,120.5c0-0.1,6.9-2.1,10.2-2.6l0,0.1C205.6,118.5,198.8,120.5,198.7,120.5z"/>
				</g>
				<g>
					<path class="st21" d="M201.5,122L201.5,122c0-0.1,6.9-2.1,7.8-2.8l0.1,0.1C208.4,119.9,201.8,121.9,201.5,122z"/>
				</g>
				<g>
					
						<rect x="206" y="121.1" transform="matrix(0.2668 0.9637 -0.9637 0.2668 269.9985 -108.1387)" class="st21" width="0.1" height="4.7"/>
				</g>
			</g>
		</g>
	</g>
	<g>
		<path class="st21" d="M159,119.9c0,0-3.4,1-5.3,2.5c-1.9,1.5-6.2,7.2-7.3,8.2c-1.1,1-3.6,5.5-4.1,6c0,0-1.7,1-2.1,1.9
			c-0.4,0.9,0.2,1.8,1.5,2c0,0-1.7,0.8-1.2,1.5c0.6,0.7,1.4,1.7,3.1,2.6c1.7,0.9,7.3,5.5,10.8,7.4c3.5,1.9,6,3,8.8,3.4
			c2.8,0.4,15.8,0.2,20.5-0.6c4.8-0.8,11.1-1.6,13.7-4c2.6-2.4,7.6-7.7,8.4-9.5c0.8-1.7,4.2-1.3,5.1-0.9c1,0.4,7.5,6,10.3,5.1
			c2.8-0.9,3.9-3.9,4.1-8.8c0.2-4.8-1.3-9.8-3.2-11.9c-1.9-2.1-4.1-3.1-6.5-0.8c-2.4,2.4-5.6,6.5-7.5,6.3c-1.9-0.1-3.1-0.4-3.1-0.4
			s0-4.4-2.5-6c-2.5-1.5-6.2-3.4-9.6-4.2c-3.4-0.9-7.8-1.5-10-1.8c-2.2-0.3-6.9-0.1-8.9,0c-2,0.1-7.4,0.7-8.8,1
			C163.7,119.2,159,119.9,159,119.9z"/>
		<g>
			<g>
				<g>
					<g>
						<path class="st22" d="M210.3,131.2L210.3,131.2c0-0.1,5.6-4.5,7.2-7l0.1,0.1C216,126.7,210.4,131.2,210.3,131.2z"/>
					</g>
					<g>
						<path class="st22" d="M210.7,132.4L210.7,132.4c0-0.1,7.4-2.8,9.9-5.6l0.1,0.1C218.1,129.7,210.8,132.4,210.7,132.4z"/>
					</g>
					<g>
						<path class="st22" d="M211.4,133.8L211.4,133.8c0.1-0.1,7.6-0.3,11.2-1.8l0,0.1c-1.9,0.8-4.9,1.2-7,1.4
							C213.3,133.8,211.4,133.8,211.4,133.8z"/>
					</g>
					<g>
						<path class="st22" d="M222.7,136.8c-5.6-0.4-11-1.3-11-1.3l0-0.1C211.7,135.5,217.2,136.4,222.7,136.8L222.7,136.8z"/>
					</g>
					<g>
						<path class="st22" d="M222.2,141.1c-1.8-0.1-4.6-1.1-6.7-2c-2.2-0.9-4.1-1.8-4.1-1.8l0-0.1
							C211.6,137.2,218.9,140.8,222.2,141.1L222.2,141.1z"/>
					</g>
					<g>
						<path class="st22" d="M220.1,143.6c-2-1.4-9.2-5.1-9.3-5.1l0-0.1C210.9,138.4,218.1,142.1,220.1,143.6L220.1,143.6z"/>
					</g>
				</g>
				<g>
					<g>
						<path class="st20" d="M176.8,120c0,0-3,3.4-3.2,5.6c-0.2,2.2-0.9,5.1-1,8.1c-0.1,3-0.1,5.4,1.5,8.8c1.6,3.4,4.7,7.9,8.2,8.8
							c0,0-5.1-4.8-6.2-9.7c-1.1-4.9-1.1-6.5-0.9-8.8c0.2-2.3,0.6-4.8,0.7-6.2c0.2-1.4,1.6-4.3,1.7-5.5
							C177.7,120.1,177.3,119.4,176.8,120z"/>
						<path class="st20" d="M178.9,125c-1.6-0.2-1.7,5.7-1.7,7.6c0.1,1.9,0.2,9.6,1.7,12c1.5,2.4,2.2,2.4,2.2,2.4s-2.5-4-2.6-8.1
							c-0.2-4.2,0-6.3,0.3-8.4C179.2,128.5,179.5,125.1,178.9,125z"/>
						<path class="st20" d="M182.9,121.5c-1.3,1.4-2,7.5-2.1,10.9c-0.1,3.4,0.9,14.6,3.4,17.3c0,0-1.4-6.1-1.8-10.3
							c-0.3-4.2-0.2-10.1,0.6-12.6C183.9,124.4,184.3,120,182.9,121.5z"/>
						<path class="st20" d="M188.6,120.2c0,0-1.6,5.1-1.9,7c-0.2,1.9,0.3,3.9-0.3,6.9c-0.6,3-0.1,7.5,1.5,11
							c1.6,3.4,4.3,6.2,4.3,6.2s-3.5-8.5-3.6-12.5c-0.1-4-0.1-5.4-0.1-7.2c0-1.8,1.2-5.8,0.9-7.9
							C189.3,121.7,188.6,120.2,188.6,120.2z"/>
						<path class="st20" d="M194.4,121.2c0,0-1,3-1,5.2c0,2.2,0,4.2-0.5,7.1c-0.4,2.9-0.2,6.1,0.2,8.3c0.4,2.2,3,7,3,7
							s-2.1-9.2-1.9-11.7c0.2-2.5-0.1-4.8,0.3-6.9c0.4-2.1,0-5.2,0.1-6.5C194.8,122.5,194.4,121.2,194.4,121.2z"/>
						<path class="st20" d="M201,124.6c0,0-3.1,4-2.8,6.3c0.3,2.3-0.6,6.1-0.3,8c0.3,2,2,6.4,2,6.4s-1.4-5.9-0.5-7.9
							c0.9-1.9,0.1-5.8,0.3-7.9C200,127.3,201,124.6,201,124.6z"/>
						<path class="st20" d="M203.9,128.9c0,0-2.3,2.6-1.9,6c0.4,3.4,1.8,7.3,1.8,7.3s-0.4-5.7-0.5-7.6
							C203.1,132.6,203.9,128.9,203.9,128.9z"/>
					</g>
					<g>
						<path class="st19" d="M159.4,146.8c0,0-0.3-0.3,1.3,1c1.6,1.2,3.2,6.7,6.5,3.2c3.3-3.5,2.6-10.8,1.5-12.8
							c-1.1-2-4.7,2-6.5,3.3c-1.9,1.4-2.4,1.4-3.4,1.6L159.4,146.8z"/>
						<g>
							<g>
								<path class="st21" d="M161.2,143.4L161.2,143.4c0-0.1,4.4-2.3,5.9-4.3l0.1,0.1C165.6,141.2,161.2,143.4,161.2,143.4z"/>
							</g>
							<g>
								<path class="st21" d="M161.1,144.3L161.1,144.3c0-0.1,4.5-1.2,7.1-2.9l0.1,0.1C165.6,143.2,161.1,144.3,161.1,144.3z"/>
							</g>
							<g>
								<path class="st21" d="M162,145.1L162,145.1c0-0.1,3.8-0.2,6.2-1l0,0.1C165.8,145,162.1,145.1,162,145.1z"/>
							</g>
							<g>
								<path class="st21" d="M168.2,146.9c-4.2-0.5-5.7-1.1-5.7-1.1l0-0.1C162.5,145.8,164,146.3,168.2,146.9L168.2,146.9z"/>
							</g>
							<g>
								<path class="st21" d="M165.8,150.1c-2.2-0.8-3.5-2.9-3.5-3l0.1,0C162.4,147.1,163.7,149.2,165.8,150.1L165.8,150.1z"/>
							</g>
							<g>
								<path class="st21" d="M167.4,148.6c-2-0.2-4.2-1.7-4.3-1.7l0.1-0.1C163.2,146.8,165.4,148.3,167.4,148.6L167.4,148.6z"/>
							</g>
						</g>
					</g>
				</g>
			</g>
			<g>
				<g>
					<g>
						<circle class="st10" cx="148" cy="135" r="2.6"/>
						<g>
							<circle class="st11" cx="148" cy="135" r="1.5"/>
							<circle class="st12" cx="148" cy="134.5" r="0.3"/>
						</g>
					</g>
					<path class="st23" d="M144.7,135.5c0,0,0.5,2.6,2.8,2.9c2.3,0.2,3.5-1.6,3.6-2.9c0,0,0.4,2-1.2,3.2c-1.6,1.3-4,0.4-4.8-0.6
						C144.3,136.9,144.7,135.5,144.7,135.5z"/>
				</g>
				<path class="st23" d="M141.6,140.5L141.6,140.5c0,0,1.7-0.4,2.2-1.1l0.2,0.1C143.3,140.4,141.7,140.5,141.6,140.5z"/>
			</g>
		</g>
		<g>
			<path class="st20" d="M153,123c0,0,0.6,1.2,0.1,2.5s-0.8,4.1-1.1,5.4c-0.2,1.4,0.1,5.4-0.8,6.7c-0.9,1.3-0.5,6.9,0.8,8.5
				c1.3,1.6,0.3-2.6,0.7-5.8c0.4-3.1-0.1-5.9,0.8-7.5c0.8-1.6,0.2-3.7,0.6-5.3c0,0,1.5-2.3,1.6-3.7c0.1-1.4-0.3-2.7-0.3-2.7
				S153.5,122.5,153,123z"/>
			<path class="st24" d="M210.8,140.4c1,0.4,7.5,6,10.3,5.1c1.3-0.4,2.3-1.3,2.9-2.6c-2.1,3.5-11.1-1.1-13-2.8
				c-1.8-1.8-4.7-0.7-5.9,1c-1.2,1.7-2.5,2.8-5.7,6.2c-3.3,3.5-3,4.1-15.2,6c-12.2,1.9-24.3,0.5-28.4-1.5c-4.2-2-11-7.4-12.4-8.4
				c-1.1-0.7-2.4-1.5-3-1.8c0,0.1,0,0.3,0.1,0.4c0.6,0.7,1.4,1.7,3.1,2.6c1.7,0.9,7.3,5.5,10.8,7.4c3.5,1.9,6,3,8.8,3.4
				c2.8,0.4,15.8,0.2,20.5-0.6c4.8-0.8,11.1-1.6,13.7-4c2.6-2.4,7.6-7.7,8.4-9.5C206.5,139.5,209.8,139.9,210.8,140.4z"/>
			<path class="st23" d="M186,119.2c0,0,6.5,1.1,11.8,3.6c5.3,2.5,5.4,3.1,6,5c0.5,1.5,0.6,2.1,1.1,2.1c0-0.9-0.3-4.4-2.5-5.8
				c-2.5-1.5-6.2-3.4-9.6-4.2c-3.4-0.9-7.8-1.5-10-1.8c-2.2-0.3-6.9-0.1-8.9,0c-2,0.1-7.4,0.7-8.8,1c-1.4,0.3-6.1,0.9-6.1,0.9
				s-3.4,1-5.3,2.5c-1.9,1.5-6.2,7.2-7.3,8.2c-0.5,0.5-1.3,1.7-2,2.9c1.1-1.1,4.4-4.3,6.4-6.6c2.5-2.9,5.9-5.4,11.7-6.3
				C168.3,119.5,177.6,117.7,186,119.2z"/>
			<path class="st25" d="M155.7,122.7c-0.1-0.8-0.3-1.4-0.3-1.4c0,0,0,0,0,0c0,0-2,1.2-2.5,1.7c0,0,0.3,0.6,0.3,1.4
				C154,123.8,154.8,123.2,155.7,122.7z"/>
		</g>
	</g>
</g>
<g>
	<g>
		<path class="st18" d="M137,137.6c-1,0-1.8-0.8-1.8-1.8c0-1,0.8-1.8,1.8-1.8c1,0,1.8,0.8,1.8,1.8C138.8,136.8,138,137.6,137,137.6z
			 M137,134.6c-0.6,0-1.2,0.5-1.2,1.2c0,0.6,0.5,1.2,1.2,1.2c0.6,0,1.2-0.5,1.2-1.2C138.2,135.2,137.7,134.6,137,134.6z"/>
	</g>
	<g>
		<path class="st18" d="M140,129.5c-2.1,0-3.9-1.7-3.9-3.9c0-2.1,1.7-3.9,3.9-3.9c2.1,0,3.9,1.7,3.9,3.9
			C143.9,127.8,142.1,129.5,140,129.5z M140,122.4c-1.8,0-3.3,1.5-3.3,3.3c0,1.8,1.5,3.3,3.3,3.3s3.3-1.5,3.3-3.3
			C143.2,123.9,141.8,122.4,140,122.4z"/>
	</g>
	<g>
		<path class="st18" d="M143.6,117.2c-2.6,0-4.8-2.1-4.8-4.8c0-2.6,2.1-4.8,4.8-4.8c2.6,0,4.8,2.1,4.8,4.8
			C148.4,115.1,146.3,117.2,143.6,117.2z M143.6,108.3c-2.3,0-4.2,1.9-4.2,4.2c0,2.3,1.9,4.2,4.2,4.2c2.3,0,4.2-1.9,4.2-4.2
			C147.8,110.2,145.9,108.3,143.6,108.3z"/>
	</g>
	<g>
		<path class="st18" d="M137,119.2c-1,0-1.8-0.8-1.8-1.8c0-1,0.8-1.8,1.8-1.8c1,0,1.8,0.8,1.8,1.8C138.8,118.4,138,119.2,137,119.2z
			 M137,116.2c-0.6,0-1.2,0.5-1.2,1.2c0,0.6,0.5,1.2,1.2,1.2c0.6,0,1.2-0.5,1.2-1.2C138.2,116.8,137.7,116.2,137,116.2z"/>
	</g>
	<g>
		<path class="st18" d="M146.7,122.9c-1.5,0-2.6-1.2-2.6-2.6c0-1.5,1.2-2.6,2.6-2.6c1.5,0,2.6,1.2,2.6,2.6
			C149.3,121.7,148.1,122.9,146.7,122.9z M146.7,118.2c-1.1,0-2,0.9-2,2c0,1.1,0.9,2,2,2c1.1,0,2-0.9,2-2
			C148.7,119.1,147.8,118.2,146.7,118.2z"/>
	</g>
</g>
<path class="st18" d="M219.7,164.7c0-4,3.2-7.2,7.2-7.2c4,0,7.2,3.2,7.2,7.2"/>
<path class="st18" d="M233.5,164.7c0-3.6-3-6.6-6.6-6.6c-3.6,0-6.6,3-6.6,6.6"/>
<g>
	<g>
		<g>
			<path class="st26" d="M50.3,97.4c0,0-1.1-0.8-1.3-1.6c-0.1-0.8-1.1-1.4-1.3-2.3c-0.2-0.8-0.3-1.1-0.9-2.3
				c-0.7-1.2-1.1-1.1-1.5-2.5c-0.4-1.3-2.2-1.8-2.1-2.5c0.1-0.7,0.6-1.4,2.4-0.4c1.8,0.9,3.8,1.5,5.8,2.1c2,0.7,3.1,0.2,4.6,0.2
				c1.4,0,3.6-0.4,5.6-0.4c2,0,3.8,0.2,4.8-0.1c1.1-0.3,3.3-1.1,4.7-1.1c1.4,0,3.7,0.3,5.3,0.2c1.6-0.1,4.8,0,6.4,0.5
				c1.7,0.5,5.2,0.5,6.3,1.6l-29.2,9.8L50.3,97.4z"/>
			<path class="st27" d="M50.8,97.3c0,0-2.5-8.2-6.8-11.3c0,0,4.2,2.4,7.8,3c3.6,0.5,12.8-0.1,16.6-0.9c3.8-0.9,15.5-1.2,20.7,0.8
				L50.8,97.3z"/>
			<g>
				<g>
					<path class="st28" d="M52.6,96.7c0-0.1-2.5-6.1-5.5-8.1l0.1-0.1c3,2,5.5,8.1,5.5,8.2L52.6,96.7z"/>
				</g>
				<g>
					<path class="st28" d="M54.3,96.1c0-0.1-3.9-6-6-7.3l0.1-0.1c2.1,1.3,5.8,7.1,6,7.4L54.3,96.1z"/>
				</g>
				<g>
					
						<rect x="49.2" y="92.3" transform="matrix(0.7478 0.664 -0.664 0.7478 74.7568 -12.0969)" class="st28" width="8.1" height="0.2"/>
				</g>
				<g>
					
						<rect x="50.9" y="92.1" transform="matrix(0.8155 0.5788 -0.5788 0.8155 63.472 -14.8013)" class="st28" width="8.1" height="0.2"/>
				</g>
				<g>
					
						<rect x="53.1" y="91.9" transform="matrix(0.8572 0.515 -0.515 0.8572 55.4514 -16.0887)" class="st28" width="7.4" height="0.2"/>
				</g>
				<g>
					
						<rect x="54.9" y="91.5" transform="matrix(0.9263 0.3769 -0.3769 0.9263 38.8499 -15.3247)" class="st28" width="7.4" height="0.2"/>
				</g>
				<g>
					
						<rect x="56.8" y="90.9" transform="matrix(0.9396 0.3421 -0.3421 0.9396 34.7904 -15.2009)" class="st28" width="7.4" height="0.2"/>
				</g>
				<g>
					
						<rect x="60.2" y="90.8" transform="matrix(0.9638 0.2668 -0.2668 0.9638 26.5366 -13.5283)" class="st28" width="5.7" height="0.2"/>
				</g>
				<g>
					
						<rect x="62.3" y="90.2" transform="matrix(0.9596 0.2812 -0.2812 0.9596 28.015 -14.6675)" class="st28" width="5.6" height="0.2"/>
				</g>
				<g>
					
						<rect x="65.1" y="89.9" transform="matrix(0.9631 0.2691 -0.2691 0.9631 26.7023 -14.8448)" class="st28" width="4.7" height="0.2"/>
				</g>
				<g>
					
						<rect x="67.5" y="89.4" transform="matrix(0.9595 0.2817 -0.2817 0.9595 28.0388 -16.0095)" class="st28" width="4.3" height="0.2"/>
				</g>
				<g>
					
						<rect x="69.7" y="89" transform="matrix(0.9577 0.2879 -0.2879 0.9577 28.6803 -16.9089)" class="st28" width="4.2" height="0.2"/>
				</g>
				<g>
					
						<rect x="71.9" y="88.5" transform="matrix(0.959 0.2835 -0.2835 0.959 28.159 -17.3493)" class="st28" width="4.3" height="0.2"/>
				</g>
				<g>
					
						<rect x="74.6" y="88.4" transform="matrix(0.968 0.251 -0.251 0.968 24.6519 -16.4185)" class="st28" width="4.1" height="0.2"/>
				</g>
				<g>
					
						<rect x="77.2" y="88.1" transform="matrix(0.9676 0.2525 -0.2525 0.9676 24.8324 -17.0255)" class="st28" width="3" height="0.2"/>
				</g>
			</g>
		</g>
		<g>
			<path class="st26" d="M43.3,108.1c0,0-4,1.2-4,1.8c0.1,0.7,1,0.6,0.8,1.5c-0.2,0.9,0,1.9,0.6,2.6c0.6,0.7,0.3,0.8,1,1.8
				c0.6,1,4.1,1.5,8.6,1.1c1.4-0.2,3.5,0.2,5.2,0.2c1.7,0,4.2,0.1,4.7-1c0.6-1.1,1.1-2,1.1-2L43.3,108.1z"/>
			<path class="st27" d="M44.1,108.3c0,0-4,1.2-3.4,2.1c0.6,0.9-0.4,1.9,0.6,2.8c1,0.9,0,1.2,1,1.9c1,0.6,0.9,0.7,2.4,1
				c1.5,0.3,4,0.3,4.9,0.1c0.8-0.2,2.3,0.1,3.6,0.2c1.3,0.2,3.8-0.4,4.7-0.1c0.9,0.3,1.9-0.7,2.9-1.8L44.1,108.3z"/>
			<g>
				<g>
					
						<rect x="44.3" y="107.4" transform="matrix(0.2222 0.975 -0.975 0.2222 141.663 42.2251)" class="st28" width="0.2" height="4.9"/>
				</g>
				<g>
					
						<rect x="45.3" y="107.9" transform="matrix(0.3296 0.9441 -0.9441 0.3296 135.1736 31.5301)" class="st28" width="0.2" height="6.2"/>
				</g>
				<g>
					
						<rect x="46.4" y="107.9" transform="matrix(0.2805 0.9599 -0.9599 0.2805 140.5842 35.7641)" class="st28" width="0.2" height="7.5"/>
				</g>
				<g>
					
						<rect x="47.8" y="108.4" transform="matrix(0.3008 0.9537 -0.9537 0.3008 140.607 32.9404)" class="st28" width="0.2" height="7.9"/>
				</g>
				<g>
					
						<rect x="49" y="108.9" transform="matrix(0.3099 0.9508 -0.9508 0.3099 141.4282 31.4661)" class="st28" width="0.2" height="8.6"/>
				</g>
				<g>
					
						<rect x="51.3" y="110" transform="matrix(0.3159 0.9488 -0.9488 0.3159 143.2023 29.2265)" class="st28" width="0.2" height="7.7"/>
				</g>
				<g>
					
						<rect x="54.5" y="111.7" transform="matrix(0.3073 0.9516 -0.9516 0.3073 146.4705 27.2351)" class="st28" width="0.2" height="5"/>
				</g>
				<g>
					
						<rect x="56.5" y="112.2" transform="matrix(0.343 0.9393 -0.9393 0.343 144.6859 22.0784)" class="st28" width="0.2" height="4.6"/>
				</g>
			</g>
		</g>
	</g>
	<g>
		<path class="st26" d="M43.9,97.5c0,0-6.2-4.4-7.1-5.5c-1-1.1-2.3-2.2-3.6-2.9c-1.2-0.6-3.6-1.2-5.2-1.2c-0.6,0-2.5,0.7-3.4,2.4
			c-0.5,1-1.1,2.6-1.5,3.6c-0.4,1,0,2.6-0.2,3.7c-0.2,1.2-1.1,3-1.4,5c-0.3,2.1,0.4,3.6,0.3,5.3c-0.1,1.7,0.3,3.5,1,3.9
			c0.7,0.4,2.6,1,4.4,0.5c0.9-0.2,12.2-4.7,13.7-4.6L43.9,97.5z"/>
		<path class="st29" d="M109.3,105.4c0.6-0.3,0.9-0.8,0.3-2.1c-0.7-1.3-3.8-5.5-5.9-7.5c-2.1-2-6.6-6-13.6-6.9c-7-1-15.2,0.4-22,2.1
			c-6.7,1.7-15.5,6.4-20,6.9c-4.6,0.6-8.4-2.7-10.6-4.4c-2.1-1.7-4.3-3.7-6.6-4.3c-2.3-0.6-5.6-0.2-6.1,3.5
			c-0.6,3.7-2.2,10.5-2.2,14.4c0,3.9,2.8,4.7,7.3,3.3c4.6-1.4,9-3.3,13.5-2.5c4.5,0.8,30,15.6,51.3,6.4c0,0,2.4,0.2,5-1.6
			c2.6-1.8,4.8-2.6,6.8-3.6c2-1,3.7-1.6,3.4-3.2L109.3,105.4z"/>
		<g>
			<g>
				<g>
					
						<rect x="31.1" y="93.3" transform="matrix(0.7427 0.6696 -0.6696 0.7427 71.8061 -0.2136)" class="st28" width="10.2" height="0.2"/>
				</g>
				<g>
					
						<rect x="28.5" y="92.8" transform="matrix(0.7765 0.6301 -0.6301 0.7765 66.2138 -0.9423)" class="st28" width="11.9" height="0.2"/>
				</g>
				<g>
					
						<rect x="26.6" y="93" transform="matrix(0.7995 0.6007 -0.6007 0.7995 62.4998 -1.1272)" class="st28" width="12.8" height="0.2"/>
				</g>
				<g>
					
						<rect x="25.1" y="93.6" transform="matrix(0.8316 0.5554 -0.5554 0.8316 57.357 -1.8816)" class="st28" width="13.3" height="0.2"/>
				</g>
				<g>
					
						<rect x="24.5" y="94.2" transform="matrix(0.8553 0.5181 -0.5181 0.8553 53.3242 -2.466)" class="st28" width="13.2" height="0.2"/>
				</g>
				<g>
					
						<rect x="24" y="95.7" transform="matrix(0.8981 0.4399 -0.4399 0.8981 45.2408 -3.7177)" class="st28" width="13.3" height="0.2"/>
				</g>
				<g>
					
						<rect x="23.9" y="97" transform="matrix(0.9143 0.405 -0.405 0.9143 41.9056 -3.9506)" class="st28" width="12.7" height="0.2"/>
				</g>
				<g>
					
						<rect x="23.6" y="98.6" transform="matrix(0.9384 0.3455 -0.3455 0.9384 35.9247 -4.2327)" class="st28" width="12.4" height="0.2"/>
				</g>
				<g>
					
						<rect x="23.4" y="100.4" transform="matrix(0.9675 0.2528 -0.2528 0.9675 26.3521 -4.1559)" class="st28" width="11.9" height="0.2"/>
				</g>
				<g>
					
						<rect x="23.1" y="101.9" transform="matrix(0.9869 0.1612 -0.1612 0.9869 16.8187 -3.3571)" class="st28" width="12" height="0.2"/>
				</g>
				<g>
					<rect x="22.8" y="103.5" class="st28" width="12.1" height="0.2"/>
				</g>
				<g>
					
						<rect x="28.7" y="98.9" transform="matrix(0.1129 0.9936 -0.9936 0.1129 129.8415 64.5059)" class="st28" width="0.2" height="12.2"/>
				</g>
				<g>
					
						<rect x="28.6" y="99.8" transform="matrix(0.1912 0.9815 -0.9815 0.1912 127.2762 57.6731)" class="st28" width="0.2" height="12.5"/>
				</g>
				<g>
					<polygon class="st28" points="23.2,108.9 23.2,108.7 35.3,105.7 35.4,105.8 					"/>
				</g>
				<g>
					
						<rect x="29.6" y="102.6" transform="matrix(0.2959 0.9552 -0.9552 0.2959 124.7983 48.1708)" class="st28" width="0.2" height="12.3"/>
				</g>
				<g>
					
						<rect x="31.8" y="103.7" transform="matrix(0.3271 0.945 -0.945 0.3271 124.6086 43.376)" class="st28" width="0.2" height="11"/>
				</g>
			</g>
			<g>
				<g>
					<g>
						<circle class="st10" cx="98.3" cy="100.1" r="2.8"/>
						<circle class="st11" cx="98.3" cy="100.1" r="1.5"/>
						<circle class="st12" cx="98.4" cy="99.6" r="0.3"/>
						<path class="st30" d="M101.5,101.4c0,0-1.2,2.5-3.6,2.2c-2.4-0.3-3.1-2.5-3-3.9c0,0-0.9,1.9,0.4,3.6c1.3,1.7,4,1.4,5,0.6
							C101.6,102.9,101.5,101.4,101.5,101.4z"/>
					</g>
					<g>
						<path class="st31" d="M107.9,105.5c-0.8-0.1-1.6-0.3-2-0.7l0.2-0.2c0.5,0.6,2.4,0.9,3.2,0.9l0,0
							C109.3,105.4,108.7,105.6,107.9,105.5z"/>
					</g>
				</g>
				<g>
					<g>
						<path class="st30" d="M84,103.3c0,0-6-4.5-7.5-5.5c-1.5-1-5.8-0.2-9.6,2.9c-3.8,3.1,1.5,10.6,6.3,11.5c0,0,2.8,1.1,11.6-4.5
							L84,103.3z"/>
						<g>
							<g>
								<line class="st28" x1="81.5" y1="103.1" x2="76" y2="98.3"/>
								
									<rect x="75.1" y="100.6" transform="matrix(0.75 0.6614 -0.6614 0.75 86.291 -26.8994)" class="st28" width="7.3" height="0.2"/>
							</g>
							<g>
								<line class="st28" x1="80.4" y1="103.4" x2="72.8" y2="98.3"/>
								
									<rect x="72" y="100.8" transform="matrix(0.8308 0.5566 -0.5566 0.8308 69.0995 -25.565)" class="st28" width="9.2" height="0.2"/>
							</g>
							<g>
								<line class="st28" x1="79.6" y1="104.2" x2="69.5" y2="99.6"/>
								
									<rect x="69" y="101.8" transform="matrix(0.9114 0.4114 -0.4114 0.9114 48.5144 -21.6457)" class="st28" width="11.1" height="0.2"/>
							</g>
							<g>
								<line class="st28" x1="78.9" y1="104.9" x2="67.5" y2="101.4"/>
								
									<rect x="67.2" y="103.1" transform="matrix(0.9571 0.2899 -0.2899 0.9571 33.042 -16.792)" class="st28" width="11.9" height="0.2"/>
							</g>
							<g>
								<line class="st28" x1="78.8" y1="106.1" x2="66.5" y2="103.8"/>
								
									<rect x="66.4" y="104.9" transform="matrix(0.9834 0.1816 -0.1816 0.9834 20.2653 -11.444)" class="st28" width="12.5" height="0.2"/>
							</g>
							<g>
								<line class="st28" x1="78.7" y1="106.8" x2="67.8" y2="106.5"/>
								<rect x="67.8" y="106.6" class="st28" width="10.9" height="0.2"/>
							</g>
							<g>
								<line class="st28" x1="79.2" y1="107.9" x2="70.2" y2="109.2"/>
								
									<rect x="74.6" y="104" transform="matrix(0.1489 0.9889 -0.9889 0.1489 170.8982 18.5215)" class="st28" width="0.2" height="9"/>
							</g>
							<g>
								<line class="st28" x1="79.9" y1="107.9" x2="73.5" y2="110.7"/>
								
									<rect x="76.6" y="105.8" transform="matrix(0.3989 0.917 -0.917 0.3989 146.3447 -4.5688)" class="st28" width="0.2" height="7"/>
							</g>
						</g>
					</g>
					<path class="st32" d="M86,97.9c0,0-7,9.9,4.9,15C90.9,112.9,81.3,107.2,86,97.9z"/>
				</g>
			</g>
			<path class="st33" d="M109.9,106.1c0,0-2.3,1.5-3.4,2c-1,0.5-6.5,2.6-7.8,3.7c-1.2,1.1-6.4,2.4-7.9,2.8c-1.5,0.5-14,3.1-25.7,0
				c-11.7-3.1-21.5-7.8-23.3-7.2c-1,0.3-1.6,0.5-1.9,0.6c1.1-0.1,2.2-0.1,3.3,0.1c4.5,0.8,30,15.6,51.3,6.4c0,0,2.4,0.2,5-1.6
				c2.6-1.8,4.8-2.6,6.8-3.6C108.4,108.3,110.1,107.6,109.9,106.1z"/>
			<path class="st34" d="M95.5,91.6c5,1.3,12.1,8.9,12.1,8.9c-1.2-1.6-2.8-3.5-4-4.7c-2.1-2-6.6-6-13.6-6.9c-7-1-15.2,0.4-22,2.1
				c-6.7,1.7-15.5,6.4-20,6.9c-1.5,0.2-2.9,0-4.1-0.5c0,0-0.1,0-0.1,0c3,4.1,14.3-1.7,27-5.6C83.6,88.1,90.5,90.3,95.5,91.6z"/>
		</g>
	</g>
</g>
<g>
	<path class="st18" d="M110,98c-1.1,0-2-0.9-2-1.9c0-1.1,0.9-2,2-2c1.1,0,1.9,0.9,1.9,2C111.9,97.2,111,98,110,98z M110,94.8
		c-0.7,0-1.3,0.6-1.3,1.3c0,0.7,0.6,1.3,1.3,1.3c0.7,0,1.3-0.6,1.3-1.3C111.3,95.4,110.7,94.8,110,94.8z"/>
</g>
<path class="st35" d="M113.3,86.2c0,2.2-1.8,3.9-3.9,3.9c-2.2,0-3.9-1.8-3.9-3.9c0-2.2,1.8-3.9,3.9-3.9
	C111.5,82.3,113.3,84,113.3,86.2"/>
<g>
	<path class="st18" d="M104.5,80.1c-1,0-1.8-0.8-1.8-1.8c0-1,0.8-1.8,1.8-1.8c1,0,1.8,0.8,1.8,1.8C106.3,79.3,105.5,80.1,104.5,80.1
		z M104.5,77.2c-0.6,0-1.1,0.5-1.1,1.1c0,0.6,0.5,1.1,1.1,1.1c0.6,0,1.1-0.5,1.1-1.1C105.6,77.7,105.1,77.2,104.5,77.2z"/>
</g>
<path class="st36" d="M65.8,43.9c5.6-0.3,7.9-5.5,6.8-11c-1.2-5.9-5.8-12.3-6.1-15.9c-1.3,4.8-7,11.8-8.2,17.6
	C57.2,39.9,61,44.1,65.8,43.9z"/>
<path class="st36" d="M95.2,49c4.6-0.2,6.5-4.5,5.6-9c-1-4.9-4.7-10.1-5-13c-1.1,3.9-5.7,9.7-6.7,14.4C88.2,45.7,91.3,49.2,95.2,49z
	"/>
<path class="st36" d="M164.7,48c4.6-0.2,6.5-4.5,5.6-9c-1-4.9-4.7-10.1-5-13c-1.1,3.9-5.7,9.7-6.7,14.4
	C157.7,44.7,160.8,48.2,164.7,48z"/>
<path class="st36" d="M195.2,33c3.4-0.2,4.7-3.3,4.1-6.6c-0.7-3.6-3.5-7.4-3.6-9.5c-0.8,2.9-4.2,7.1-4.9,10.6
	C190,30.6,192.3,33.1,195.2,33z"/>
<path class="st36" d="M131.7,38.7c3-0.2,4.3-3,3.7-6c-0.6-3.2-3.1-6.6-3.3-8.6c-0.7,2.6-3.8,6.4-4.4,9.5
	C127.1,36.5,129.1,38.8,131.7,38.7z"/>
<path class="st36" d="M147.1,55.7c3-0.2,4.3-3,3.7-6c-0.6-3.2-3.1-6.6-3.3-8.6c-0.7,2.6-3.8,6.4-4.4,9.5
	C142.5,53.5,144.6,55.8,147.1,55.7z"/>
<path class="st36" d="M78.1,55.2c3-0.2,4.3-3,3.7-6c-0.6-3.2-3.1-6.6-3.3-8.6c-0.7,2.6-3.8,6.4-4.4,9.5C73.5,53,75.6,55.3,78.1,55.2
	z"/>
<path class="st36" d="M206.1,59.2c3-0.2,4.3-3,3.7-6c-0.6-3.2-3.1-6.6-3.3-8.6c-0.7,2.6-3.8,6.4-4.4,9.5
	C201.5,57,203.6,59.3,206.1,59.2z"/>
<path class="st36" d="M119.3,65.9c5.6-0.3,7.9-5.5,6.8-11c-1.2-5.9-5.8-12.3-6.1-15.9c-1.3,4.8-7,11.8-8.2,17.6
	C110.7,61.9,114.5,66.1,119.3,65.9z"/>
<path class="st36" d="M185.8,65.4c5.6-0.3,7.9-5.5,6.8-11c-1.2-5.9-5.8-12.3-6.1-15.9c-1.3,4.8-7,11.8-8.2,17.6
	C177.2,61.4,181,65.6,185.8,65.4z"/>
</svg>
