<?xml version="1.0" encoding="utf-8"?>
<!-- Generator: Adobe Illustrator 19.1.0, SVG Export Plug-In . SVG Version: 6.00 Build 0)  -->
<svg version="1.1" xmlns="http://www.w3.org/2000/svg" xmlns:xlink="http://www.w3.org/1999/xlink" x="0px" y="0px"
	 viewBox="0 0 337.2 300.6" style="enable-background:new 0 0 337.2 300.6;" xml:space="preserve">
<style type="text/css">
	.st0{fill:#1E92D8;}
	.st1{fill:#0F9E4A;}
	.st2{fill:#FFC0B8;}
	.st3{fill:#EF2200;}
	.st4{fill:#0CBF55;}
	.st5{fill:#3F0A03;}
	.st6{fill:#FFFFFF;}
	.st7{fill:#870A00;}
	.st8{fill:#FF765F;}
	.st9{fill:#ED9700;}
	.st10{fill:#EDA400;}
</style>
<g id="Background">
</g>
<g id="Objects">
	<g>
		<g>
			<path class="st0" d="M189,91.9c3.6-0.2,5-3.5,4.3-6.9c-0.8-3.7-3.6-7.7-3.8-10c-0.8,3-4.4,7.4-5.1,11.1
				C183.6,89.4,186,92.1,189,91.9z"/>
			<path class="st0" d="M219.1,85.9c5.6-0.3,7.9-5.5,6.8-11c-1.2-5.9-5.8-12.3-6.1-15.9c-1.3,4.8-7,11.8-8.2,17.6
				C210.6,81.9,214.3,86.2,219.1,85.9z"/>
			<path class="st0" d="M163.1,67.3c4.6-0.2,6.4-4.5,5.5-8.9c-1-4.8-4.7-9.9-4.9-12.8c-1.1,3.9-5.7,9.5-6.6,14.2
				C156.2,64.1,159.2,67.5,163.1,67.3z"/>
			<path class="st0" d="M187.1,60.9c5.6-0.3,7.9-5.5,6.8-11c-1.2-5.9-5.8-12.3-6.1-15.9c-1.3,4.8-7,11.8-8.2,17.6
				C178.6,56.9,182.3,61.2,187.1,60.9z"/>
			<path class="st0" d="M220.1,46.3c4.8-0.3,6.7-4.9,5.8-9.7c-1-5.2-4.9-10.8-5.2-14c-1.1,4.2-6,10.4-7,15.5
				C212.8,42.8,216,46.5,220.1,46.3z"/>
			<path class="st0" d="M248.1,66.9c5.6-0.3,7.9-5.5,6.8-11c-1.2-5.9-5.8-12.3-6.1-15.9c-1.3,4.8-7,11.8-8.2,17.6
				C239.6,62.9,243.3,67.2,248.1,66.9z"/>
			<path class="st0" d="M249,102.4c3.8-0.2,5.3-3.7,4.5-7.4c-0.8-4-3.9-8.2-4.1-10.6c-0.9,3.2-4.7,7.9-5.5,11.7
				C243.3,99.8,245.8,102.6,249,102.4z"/>
			<path class="st0" d="M238.1,153.9c5.6-0.3,7.9-5.5,6.8-11c-0.8-3.9-3.1-8-4.6-11.4c-0.7-1.4-2.7-1.5-3.4-0.1
				c-2.2,4.2-5.4,9-6.3,13.2C229.6,149.9,233.3,154.2,238.1,153.9z"/>
			<path class="st0" d="M282.1,85.9c5.6-0.3,7.9-5.5,6.8-11c-1.2-5.9-5.8-12.3-6.1-15.9c-1.3,4.8-7,11.8-8.2,17.6
				C273.6,81.9,277.3,86.2,282.1,85.9z"/>
			<path class="st0" d="M199.1,26.9c5.6-0.3,7.9-5.5,6.8-11c-1.2-5.9-5.8-12.3-6.1-15.9c-1.3,4.8-7,11.8-8.2,17.6
				C190.6,22.9,194.3,27.2,199.1,26.9z"/>
			<path class="st0" d="M164.1,31.8c5.2-0.3,7.3-5.1,6.2-10.1c-1.1-5.5-5.3-11.3-5.6-14.6c-1.2,4.4-6.4,10.8-7.5,16.2
				C156.2,28.1,159.7,32,164.1,31.8z"/>
			<path class="st0" d="M130.1,47.8c4.8-0.2,6.7-4.7,5.7-9.3c-1-5-4.9-10.3-5.1-13.4c-1.1,4-5.9,9.9-6.9,14.8
				C122.9,44.4,126,48,130.1,47.8z"/>
			<path class="st0" d="M276.1,47.9c5.6-0.3,7.9-5.5,6.8-11c-1.2-5.9-5.8-12.3-6.1-15.9c-1.3,4.8-7,11.8-8.2,17.6
				C267.6,43.9,271.3,48.2,276.1,47.9z"/>
			<path class="st0" d="M243.1,29.9c5.6-0.3,7.9-5.5,6.8-11c-1.2-5.9-5.8-12.3-6.1-15.9c-1.3,4.8-7,11.8-8.2,17.6
				C234.6,25.9,238.3,30.2,243.1,29.9z"/>
			<path class="st0" d="M304.1,52.5c4.6-0.2,6.5-4.5,5.6-9c-1-4.9-4.7-10.1-5-13c-1.1,3.9-5.7,9.7-6.7,14.4
				C297.1,49.2,300.1,52.7,304.1,52.5z"/>
			<path class="st0" d="M295.1,26.9c5.6-0.3,7.9-5.5,6.8-11c-1.2-5.9-5.8-12.3-6.1-15.9c-1.3,4.8-7,11.8-8.2,17.6
				C286.6,22.9,290.3,27.2,295.1,26.9z"/>
			<path class="st0" d="M270,123.6c4.4-0.2,6.2-4.6,5.3-9.2c-0.9-4.9-4.5-10.2-4.8-13.2c-1,3.9-5.5,9.8-6.4,14.6
				C263.4,120.3,266.3,123.8,270,123.6z"/>
			<path class="st0" d="M205,124.6c4.4-0.2,6.2-4.6,5.3-9.2c-0.9-4.9-4.5-10.2-4.8-13.2c-1,3.9-5.5,9.8-6.4,14.6
				C198.4,121.3,201.3,124.8,205,124.6z"/>
			<path class="st0" d="M304.1,98.9c5.6-0.3,7.9-5.5,6.8-11c-1.2-5.9-5.8-12.3-6.1-15.9c-1.3,4.8-7,11.8-8.2,17.6
				C295.6,94.9,299.3,99.2,304.1,98.9z"/>
			<path class="st0" d="M330.1,55.9c5.6-0.3,7.9-5.5,6.8-11c-1.2-5.9-5.8-12.3-6.1-15.9c-1.3,4.8-7,11.8-8.2,17.6
				C321.6,51.9,325.3,56.2,330.1,55.9z"/>
			<path class="st0" d="M229.1,118.9c5.6-0.3,7.9-5.5,6.8-11c-1.2-5.9-5.8-12.3-6.1-15.9c-1.3,4.8-7,11.8-8.2,17.6
				C220.6,114.9,224.3,119.2,229.1,118.9z"/>
		</g>
		<g>
			<path class="st1" d="M75.1,197.5c0,0-17.3-16-25.6-17.1C41.1,179.3,52,200,52,200s-25.1-16.2-34.8-14.2c-9.8,2,2.2,23.4,2.2,23.4
				s-12-7.2-18.1-5.9c-6.1,1.4,11.9,25.3,15,26.6c5.6,2.4,42.4,6.9,67.3-5C99.6,217.2,78,202.3,75.1,197.5z"/>
			<path class="st2" d="M93.5,158.4c0,0-24.5,24.3-23.4,49.9c1.1,25.6,34,31.5,49.3,29.4c15.3-2.1,24.6-3.8,13.4-34.1
				c-11.2-30.4-10.4-41.8-10.1-45.2C123.1,155.1,93.5,158.4,93.5,158.4z"/>
			<path class="st3" d="M132.3,75.6c36.7,4.6,81.7,73.9,60.5,96.2s-61.4,2.1-82.6-3.3c-21.2-5.4-62.4,8.7-77.5-16.7
				C17.7,126.4,74.9,68.4,132.3,75.6z"/>
			<path class="st4" d="M36.9,244.3c0,0-12.8-37.8-4.7-46.8c8.1-9,19.8,30.9,19.8,30.9s12.5-31.5,23.7-32.2c11.1-0.7,2.2,24,2.2,24
				S95.2,206.1,103,210c7.8,3.9-4.5,20.3-4.5,20.3s26-17.7,40.5-12.5c14.5,5.2,8.1,18.3,8.1,18.3s14.2-13.1,20.1-10
				c5.9,3.1-7,18.4-11.4,20.3C151.3,248.5,76.5,252.9,36.9,244.3z"/>
			<ellipse class="st5" cx="114.4" cy="181.6" rx="3.3" ry="3.6"/>
			<ellipse class="st5" cx="93.3" cy="180.4" rx="3.3" ry="3.6"/>
			<path class="st6" d="M64.3,109.9c8.4-2.9,15.9,18.1,2.8,24.8C53.9,141.4,51.2,114.4,64.3,109.9z"/>
			<path class="st6" d="M90,108.3c-5.5-2.6,0.7-17.3,13.5-18.7c12.8-1.4,22.3,4.2,21.5,8.1C124.2,101.6,106,115.8,90,108.3z"/>
			<path class="st6" d="M134.3,94.3c4.4-3.3,17.8,10.6,10.6,15.3C137.6,114.4,126.5,100.2,134.3,94.3z"/>
			<path class="st6" d="M148.5,135.8c0,6.5,32.3,8.1,27.3-4.7C170.8,118.3,148.5,114.8,148.5,135.8z"/>
			<path class="st6" d="M128.4,135.8c4.1-2.8,13.4,5.4,8.8,10.1C132.6,150.6,122.3,139.9,128.4,135.8z"/>
			<path class="st3" d="M137.2,161.5c-1,4.1,17.4,7.5,16.1,0C152.1,154,138.5,156.2,137.2,161.5z"/>
			<path class="st6" d="M64.9,154c1.3-4.5,16.6,0.6,13,4.7S63.7,158.4,64.9,154z"/>
			<path class="st6" d="M88,129.5c4.5-4.9,31.1,3.4,23,17.6S81.9,136.2,88,129.5z"/>
			<path class="st6" d="M151.8,167.4c-2.4-5.7,25.9-10.9,25.9,0C177.8,178.2,156.4,178,151.8,167.4z"/>
			<g>
				<g>
					<g>
						<g>
							<path class="st7" d="M98.7,187c0,0,0.1,0.2,0.3,0.5c0.1,0.2,0.2,0.3,0.4,0.5c0.1,0.1,0.1,0.2,0.2,0.3
								c0.1,0.1,0.2,0.2,0.3,0.3c0.2,0.2,0.4,0.3,0.7,0.5c0.2,0.2,0.5,0.2,0.7,0.4c0.3,0.1,0.5,0.2,0.8,0.2c0.3,0.1,0.5,0,0.7,0.1
								c0.2-0.1,0.5,0,0.7-0.2c0.2-0.1,0.5-0.2,0.7-0.3c0.2-0.2,0.5-0.3,0.7-0.5c0.2-0.2,0.4-0.3,0.6-0.5c0.1-0.1,0.2-0.2,0.3-0.3
								c0.1-0.1,0.1-0.2,0.2-0.3c0.1-0.2,0.3-0.4,0.3-0.5c0.2-0.3,0.3-0.6,0.3-0.6s0.1,0.2,0.3,0.6c0.1,0.2,0.2,0.4,0.2,0.8
								c0,0.2,0,0.3,0,0.5c0,0.2,0,0.3-0.1,0.5c0,0.4-0.2,0.8-0.4,1.2c-0.2,0.4-0.5,0.8-0.8,1.2c-0.4,0.3-0.8,0.7-1.3,0.9
								c-0.5,0.3-1.1,0.3-1.7,0.4c-0.6,0-1.2-0.1-1.7-0.3c-0.5-0.2-1-0.5-1.4-0.8c-0.4-0.3-0.7-0.7-0.9-1.1
								c-0.2-0.4-0.4-0.8-0.5-1.1c0-0.2-0.1-0.4-0.1-0.5c0-0.2,0-0.3,0-0.5c0-0.3,0-0.6,0.1-0.8C98.6,187.2,98.7,187,98.7,187z"/>
						</g>
					</g>
				</g>
			</g>
			<ellipse class="st8" cx="117.7" cy="191.2" rx="4.2" ry="3.2"/>
			<ellipse class="st8" cx="88" cy="189.8" rx="4.2" ry="3.2"/>
			<path class="st1" d="M52,200c0,0-28.1-17.7-37.8-15.7c-9.8,2,5.2,24.9,5.2,24.9"/>
			<path class="st1" d="M75.1,197.5c0,0-20.3-17.5-28.6-18.6s5.5,21,5.5,21"/>
			<path class="st2" d="M132.9,203.6c-11.2-30.4-13.4-43.3-13.1-46.7c0.3-3.3-29.3,0-29.3,0S69,182.7,70.1,208.3"/>
			<path class="st3" d="M129.3,74.1c36.7,4.6,81.7,73.9,60.5,96.2s-61.4,2.1-82.6-3.3c-21.2-5.4-62.4,8.7-77.5-16.7
				C14.7,124.9,71.9,66.9,129.3,74.1z"/>
			<ellipse class="st5" cx="111.4" cy="180.1" rx="3.3" ry="3.6"/>
			<ellipse class="st5" cx="90.3" cy="178.9" rx="3.3" ry="3.6"/>
			<path class="st6" d="M61.3,108.4c8.4-2.9,15.9,18.1,2.8,24.8C50.9,139.9,48.2,112.9,61.3,108.4z"/>
			<path class="st6" d="M87,106.8c-5.5-2.6,0.7-17.3,13.5-18.7c12.8-1.4,22.3,4.2,21.5,8.1C121.2,100.1,103,114.3,87,106.8z"/>
			<path class="st6" d="M131.3,92.8c4.4-3.3,17.8,10.6,10.6,15.3C134.6,112.9,123.5,98.7,131.3,92.8z"/>
			<path class="st6" d="M145.5,134.3c0,6.5,32.3,8.1,27.3-4.7C167.8,116.8,145.5,113.3,145.5,134.3z"/>
			<path class="st6" d="M125.4,134.3c4.1-2.8,13.4,5.4,8.8,10.1C129.6,149.1,119.3,138.4,125.4,134.3z"/>
			<path class="st3" d="M134.2,160c-1,4.1,17.4,7.5,16.1,0C149.1,152.5,135.5,154.7,134.2,160z"/>
			<path class="st6" d="M61.9,152.5c1.3-4.5,16.6,0.6,13,4.7S60.7,156.9,61.9,152.5z"/>
			<path class="st6" d="M85,128c4.5-4.9,31.1,3.4,23,17.6S78.9,134.7,85,128z"/>
			<path class="st6" d="M148.9,165.9c-2.4-5.7,25.9-10.9,25.9,0C174.8,176.7,153.4,176.5,148.9,165.9z"/>
			<g>
				<g>
					<g>
						<g>
							<path class="st7" d="M95.7,185.5c0,0,0.1,0.2,0.3,0.5c0.1,0.2,0.2,0.3,0.4,0.5c0.1,0.1,0.1,0.2,0.2,0.3
								c0.1,0.1,0.2,0.2,0.3,0.3c0.2,0.2,0.4,0.3,0.7,0.5c0.2,0.2,0.5,0.2,0.7,0.4c0.3,0.1,0.5,0.2,0.8,0.2c0.3,0.1,0.5,0,0.7,0.1
								c0.2-0.1,0.5,0,0.7-0.2c0.2-0.1,0.5-0.2,0.7-0.3c0.2-0.2,0.5-0.3,0.7-0.5c0.2-0.2,0.4-0.3,0.6-0.5c0.1-0.1,0.2-0.2,0.3-0.3
								c0.1-0.1,0.1-0.2,0.2-0.3c0.1-0.2,0.3-0.4,0.3-0.5c0.2-0.3,0.3-0.6,0.3-0.6s0.1,0.2,0.3,0.6c0.1,0.2,0.2,0.4,0.2,0.8
								c0,0.2,0,0.3,0,0.5c0,0.2,0,0.3-0.1,0.5c0,0.4-0.2,0.8-0.4,1.2c-0.2,0.4-0.5,0.8-0.8,1.2c-0.4,0.3-0.8,0.7-1.3,0.9
								c-0.5,0.3-1.1,0.3-1.7,0.4c-0.6,0-1.2-0.1-1.7-0.3c-0.5-0.2-1-0.5-1.4-0.8c-0.4-0.3-0.7-0.7-0.9-1.1
								c-0.2-0.4-0.4-0.8-0.5-1.1c0-0.2-0.1-0.4-0.1-0.5c0-0.2,0-0.3,0-0.5c0-0.3,0-0.6,0.1-0.8C95.6,185.7,95.7,185.5,95.7,185.5z"
								/>
						</g>
					</g>
				</g>
			</g>
			<ellipse class="st8" cx="114.7" cy="189.7" rx="4.2" ry="3.2"/>
			<ellipse class="st8" cx="85" cy="188.3" rx="4.2" ry="3.2"/>
		</g>
		<g>
			<path class="st1" d="M234.8,264.8c0,0-11.9-11-17.7-11.8c-5.8-0.8,1.7,13.4,1.7,13.4s-31.3-11.1-38-9.8
				c-6.7,1.3,1.5,16.1,1.5,16.1s-8.3-5-12.5-4c-4.2,1,8.2,17.4,10.3,18.3c3.8,1.6,43.2,4.7,60.4-3.4
				C251.6,278.4,236.7,268.1,234.8,264.8z"/>
			<path class="st2" d="M247.4,237.9c0,0-16.9,16.7-16.1,34.4c0.8,17.7,23.4,21.7,34,20.3c10.6-1.4,19-2.6,11.3-23.5
				c-7.7-20.9-9.2-28.8-9-31.1C267.8,235.6,247.4,237.9,247.4,237.9z"/>
			<path class="st4" d="M208.5,297.1c0,0-8.8-26-3.3-32.2c5.6-6.2,13.6,21.3,13.6,21.3s8.6-21.7,16.3-22.2
				c7.7-0.5,1.5,16.6,1.5,16.6s11.9-9.7,17.3-7.1c5.4,2.7-3.1,14-3.1,14s20-12.2,30-8.6s5.6,12.6,5.6,12.6s9.8-9,13.8-6.9
				c4,2.1-4.8,12.7-7.9,14C289.3,299.9,235.7,303,208.5,297.1z"/>
			<ellipse class="st5" cx="261.8" cy="253.8" rx="2.3" ry="2.5"/>
			<ellipse class="st5" cx="247.3" cy="253" rx="2.3" ry="2.5"/>
			<path class="st6" d="M227.3,204.5c5.8-2,10.9,12.5,1.9,17.1C220.2,226.2,218.3,207.5,227.3,204.5z"/>
			<path class="st6" d="M245,203.3c-3.8-1.8,0.5-11.9,9.3-12.9s15.4,2.9,14.8,5.6C268.6,198.7,256.1,208.5,245,203.3z"/>
			<path class="st6" d="M277.6,193.7c3-2.3,12.3,7.3,7.3,10.6C279.9,207.5,272.2,197.8,277.6,193.7z"/>
			<path class="st6" d="M287.4,222.3c0,4.5,22.3,5.6,18.8-3.2C302.8,210.2,287.4,207.9,287.4,222.3z"/>
			<path class="st6" d="M273.6,222.3c2.8-1.9,9.2,3.7,6,7C276.4,232.5,269.3,225.1,273.6,222.3z"/>
			<path class="st3" d="M279.6,240c-0.7,2.8,12,5.2,11.1,0C289.9,234.8,280.5,236.4,279.6,240z"/>
			<path class="st6" d="M227.7,234.8c0.9-3.1,11.4,0.4,8.9,3.3C234.2,241,226.9,237.9,227.7,234.8z"/>
			<path class="st6" d="M243.6,217.9c3.1-3.4,21.4,2.4,15.9,12.1C254,239.8,239.5,222.6,243.6,217.9z"/>
			<path class="st6" d="M289.7,244c-1.7-3.9,17.9-7.5,17.9,0C307.6,251.5,292.8,251.4,289.7,244z"/>
			<g>
				<g>
					<g>
						<g>
							<path class="st7" d="M251,257.6c0,0,0.3,0.6,0.8,1.1c0.1,0.1,0.3,0.2,0.5,0.3c0.2,0.1,0.4,0.2,0.5,0.3
								c0.2,0.1,0.4,0.1,0.5,0.2c0.2,0,0.3,0,0.5,0c0.2,0,0.3,0,0.5-0.1c0.2-0.1,0.3-0.1,0.5-0.2c0.2-0.1,0.3-0.2,0.5-0.3
								c0.2-0.1,0.3-0.2,0.4-0.4c0.2-0.3,0.4-0.5,0.6-0.8c0.1-0.2,0.2-0.4,0.2-0.4s0.1,0.1,0.2,0.4c0.1,0.3,0.2,0.7,0.1,1.2
								c0,0.3-0.1,0.5-0.3,0.8c-0.1,0.3-0.3,0.6-0.6,0.8c-0.2,0.2-0.5,0.5-0.9,0.6c-0.4,0.1-0.7,0.2-1.2,0.3c-0.4,0-0.8-0.1-1.2-0.2
								c-0.4-0.1-0.7-0.3-0.9-0.6c-0.3-0.2-0.5-0.5-0.6-0.7c-0.2-0.3-0.3-0.5-0.3-0.8C250.6,258.1,251,257.5,251,257.6z"/>
						</g>
					</g>
				</g>
			</g>
			<ellipse class="st8" cx="264.1" cy="260.5" rx="2.9" ry="2.2"/>
			<ellipse class="st8" cx="243.6" cy="259.5" rx="2.9" ry="2.2"/>
			<path class="st1" d="M218.8,266.5c0,0-33.4-12.2-40.1-10.8c-6.7,1.3,3.6,17.2,3.6,17.2"/>
			<path class="st1" d="M234.8,264.8c0,0-14-12-19.7-12.8c-5.8-0.8,3.8,14.5,3.8,14.5"/>
			<path class="st2" d="M276.6,269c-7.7-20.9-11.3-29.8-11.1-32.1c0.2-2.3-20.2,0-20.2,0s-14.8,17.7-14.1,35.4"/>
			<path class="st9" d="M269.8,175.5c31.6,3.6,57.5,47.4,45.1,72.3c-18,36.2-43.2,1.8-58-4c-14-5.5-43,6-53.4-11.5
				C193.1,214.8,230.2,171,269.8,175.5z"/>
			<ellipse class="st5" cx="259.7" cy="252.8" rx="2.3" ry="2.5"/>
			<ellipse class="st5" cx="245.2" cy="252" rx="2.3" ry="2.5"/>
			<path class="st6" d="M225.2,203.4c5.8-2,10.9,12.5,1.9,17.1C218.1,225.1,216.2,206.5,225.2,203.4z"/>
			<path class="st6" d="M243,202.3c-3.8-1.8,0.5-11.9,9.3-12.9c8.8-1,15.4,2.9,14.8,5.6C266.5,197.7,254,207.5,243,202.3z"/>
			<path class="st6" d="M275.5,192.7c3-2.3,12.3,7.3,7.3,10.6C277.8,206.5,270.2,196.7,275.5,192.7z"/>
			<path class="st6" d="M285.3,221.3c0,4.5,22.3,5.6,18.8-3.2C300.7,209.2,285.3,206.8,285.3,221.3z"/>
			<path class="st6" d="M271.5,221.3c2.8-1.9,9.2,3.7,6,7C274.4,231.5,267.3,224.1,271.5,221.3z"/>
			<path class="st10" d="M277.5,239c-0.7,2.8,12,5.2,11.1,0C287.8,233.8,278.4,235.3,277.5,239z"/>
			<path class="st6" d="M225.7,233.8c0.9-3.1,11.4,0.4,8.9,3.3C232.1,239.9,224.8,236.9,225.7,233.8z"/>
			<path class="st6" d="M241.6,216.9c3.1-3.4,21.4,2.4,15.9,12.1C251.9,238.8,237.4,221.6,241.6,216.9z"/>
			<path class="st6" d="M287.6,243c-1.7-3.9,17.9-7.5,17.9,0C305.5,250.5,290.7,250.3,287.6,243z"/>
			<g>
				<g>
					<g>
						<g>
							<path class="st7" d="M248.9,256.5c0,0,0.3,0.6,0.8,1.1c0.1,0.1,0.3,0.2,0.5,0.3c0.2,0.1,0.4,0.2,0.5,0.3
								c0.2,0.1,0.4,0.1,0.5,0.2c0.2,0,0.3,0,0.5,0c0.2,0,0.3,0,0.5-0.1c0.2-0.1,0.3-0.1,0.5-0.2c0.2-0.1,0.3-0.2,0.5-0.3
								c0.2-0.1,0.3-0.2,0.4-0.4c0.2-0.3,0.4-0.5,0.6-0.8c0.1-0.2,0.2-0.4,0.2-0.4s0.1,0.1,0.2,0.4c0.1,0.3,0.2,0.7,0.1,1.2
								c0,0.3-0.1,0.5-0.3,0.8c-0.1,0.3-0.3,0.6-0.6,0.8c-0.2,0.2-0.5,0.5-0.9,0.6c-0.4,0.1-0.7,0.2-1.2,0.3c-0.4,0-0.8-0.1-1.2-0.2
								c-0.4-0.1-0.7-0.3-0.9-0.6c-0.3-0.2-0.5-0.5-0.6-0.7c-0.2-0.3-0.3-0.5-0.3-0.8C248.5,257.1,249,256.5,248.9,256.5z"/>
						</g>
					</g>
				</g>
			</g>
			<ellipse class="st8" cx="262" cy="259.4" rx="2.9" ry="2.2"/>
			<ellipse class="st8" cx="241.6" cy="258.5" rx="2.9" ry="2.2"/>
		</g>
	</g>
</g>
</svg>
