<?xml version="1.0" encoding="utf-8"?>
<!-- Generator: Adobe Illustrator 19.1.0, SVG Export Plug-In . SVG Version: 6.00 Build 0)  -->
<svg version="1.1" id="Layer_1" xmlns="http://www.w3.org/2000/svg" xmlns:xlink="http://www.w3.org/1999/xlink" x="0px" y="0px"
	 viewBox="0 0 777.1 41.9" style="enable-background:new 0 0 777.1 41.9;" xml:space="preserve">
<style type="text/css">
	.st0{fill:#778A8E;}
	.st1{fill:#8FA6AE;}
	.st2{fill:#EFCA4C;}
	.st3{fill:#A68721;}
	.st4{fill:#CDA925;}
	.st5{fill:#EB696D;}
	.st6{fill:#00A473;}
	.st7{fill:#B7CAD0;}
	.st8{fill:#5FBBCC;}
	.st9{fill:#7FBAC8;}
	.st10{fill:#137288;}
</style>
<g>
	<g>
		<path class="st0" d="M37.2,19.3c-0.2-0.1-0.4-0.2-0.5-0.3c0.2-0.2,0.3-0.4,0.4-0.6c1.3-2.3,0.5-5.3-1.8-6.6
			c-2.2-1.3-5.1-0.6-6.5,1.6c-1.6-0.8-3.4-0.6-4.8,0.4c2.6,1.9,4.3,4.9,4.4,8.4c3.2,0.3,5.9,2.1,7.5,4.7c1.1-0.2,2.1-0.9,2.7-2
			C39.8,22.9,39.2,20.4,37.2,19.3z"/>
		<path class="st1" d="M27.6,23.9c-0.4,0-0.8,0-1.1,0.1c0.1-0.5,0.1-0.9,0.1-1.4c0-5.1-4.1-9.2-9.2-9.2c-4.9,0-9,3.9-9.2,8.8
			c-4.6,0.2-8.3,4-8.3,8.7c0,4.8,3.9,8.7,8.7,8.7h18.9c4.3,0,7.8-3.5,7.8-7.8C35.5,27.5,32,23.9,27.6,23.9z"/>
	</g>
	<path class="st2" d="M358.4,21.3h-4.9c-0.1-0.9-0.4-1.8-0.7-2.7l4.3-2.5c0.8-0.5,1.1-1.5,0.6-2.2c-0.5-0.8-1.5-1.1-2.2-0.6
		l-4.3,2.5c-0.6-0.7-1.2-1.4-2-2l2.5-4.3c0.5-0.8,0.2-1.8-0.6-2.2c-0.8-0.5-1.8-0.2-2.2,0.6l-2.5,4.3c-0.8-0.3-1.7-0.6-2.7-0.7V6.5
		c0-0.9-0.7-1.6-1.6-1.6c-0.9,0-1.6,0.7-1.6,1.6v4.9c-0.9,0.1-1.8,0.4-2.7,0.7l-2.5-4.3c-0.5-0.8-1.5-1.1-2.2-0.6
		c-0.8,0.5-1.1,1.5-0.6,2.2l2.5,4.3c-0.7,0.6-1.4,1.2-2,2l-4.3-2.5c-0.8-0.5-1.8-0.2-2.2,0.6c-0.5,0.8-0.2,1.8,0.6,2.2l4.3,2.5
		c-0.3,0.8-0.6,1.7-0.7,2.7h-4.9c-0.9,0-1.6,0.7-1.6,1.6c0,0.9,0.7,1.6,1.6,1.6h4.9c0.1,0.9,0.4,1.8,0.7,2.7l-4.3,2.5
		c-0.8,0.5-1.1,1.5-0.6,2.2c0.3,0.5,0.9,0.8,1.4,0.8c0.3,0,0.6-0.1,0.8-0.2l4.3-2.5c0.6,0.7,1.2,1.4,2,2l-2.5,4.3
		c-0.5,0.8-0.2,1.8,0.6,2.2c0.3,0.1,0.5,0.2,0.8,0.2c0.6,0,1.1-0.3,1.4-0.8l2.5-4.3c0.8,0.3,1.7,0.6,2.7,0.7v4.9
		c0,0.9,0.7,1.6,1.6,1.6c0.9,0,1.6-0.7,1.6-1.6v-4.9c0.9-0.1,1.8-0.4,2.7-0.7l2.5,4.3c0.3,0.5,0.9,0.8,1.4,0.8
		c0.3,0,0.6-0.1,0.8-0.2c0.8-0.5,1.1-1.5,0.6-2.2l-2.5-4.3c0.7-0.6,1.4-1.2,2-2l4.3,2.5c0.3,0.2,0.5,0.2,0.8,0.2
		c0.6,0,1.1-0.3,1.4-0.8c0.5-0.8,0.2-1.8-0.6-2.2l-4.3-2.5c0.3-0.8,0.6-1.7,0.7-2.7h4.9c0.9,0,1.6-0.7,1.6-1.6
		C360.1,22.1,359.3,21.3,358.4,21.3z"/>
	<g>
		<path class="st3" d="M124.5,23h-6.6c-1,0-1.5-0.7-1-1.6l4.7-8.4c0.5-0.9,0.1-1.6-1-1.6h-6c-1,0-2.2,0.8-2.5,1.8l-4.4,12.8
			c-0.3,1,0.2,1.8,1.3,1.8h4.7c1,0,1.5,0.8,1.1,1.7l-5.1,11.7c-0.4,1-0.2,1.1,0.5,0.3l14.8-17C125.8,23.7,125.5,23,124.5,23z"/>
		<path class="st4" d="M140,14.9h-5.3c-0.8,0-1.2-0.6-0.8-1.3l3.8-6.6c0.4-0.7,0.1-1.3-0.8-1.3h-4.8c-0.8,0-1.7,0.6-2,1.4l-3.5,10.2
			c-0.3,0.8,0.2,1.4,1,1.4h3.8c0.8,0,1.2,0.6,0.9,1.4l-4,9.3c-0.3,0.8-0.2,0.9,0.4,0.2l11.8-13.5C141.1,15.5,140.8,14.9,140,14.9z"
			/>
	</g>
	<g>
		<path class="st2" d="M458.1,21.7c0-0.9-0.5-1.6-1.2-2.1c-6.7-3.6-7.1-4-10.7-10.7c-0.4-0.8-1.2-1.2-2.1-1.2s-1.6,0.5-2.1,1.2
			c-3.6,6.7-4,7.1-10.7,10.7c-0.8,0.4-1.2,1.2-1.2,2.1c0,0.9,0.5,1.6,1.2,2.1c6.7,3.6,7.1,4,10.7,10.7c0.4,0.8,1.2,1.2,2.1,1.2
			s1.6-0.5,2.1-1.2c3.6-6.7,4-7.1,10.7-10.7C457.7,23.4,458.1,22.6,458.1,21.7z"/>
		<path class="st4" d="M430.9,13.2c0.3,0,0.5-0.2,0.7-0.4c1.2-2.2,1.3-2.4,3.6-3.6c0.3-0.1,0.4-0.4,0.4-0.7c0-0.3-0.2-0.5-0.4-0.7
			c-2.2-1.2-2.4-1.3-3.6-3.6c-0.1-0.3-0.4-0.4-0.7-0.4c-0.3,0-0.5,0.2-0.7,0.4c-1.2,2.2-1.3,2.4-3.6,3.6c-0.3,0.1-0.4,0.4-0.4,0.7
			c0,0.3,0.2,0.5,0.4,0.7c2.2,1.2,2.4,1.3,3.6,3.6C430.4,13,430.6,13.2,430.9,13.2z"/>
		<path class="st4" d="M461.6,34.2c-2.2-1.2-2.4-1.3-3.6-3.6c-0.1-0.3-0.4-0.4-0.7-0.4c-0.3,0-0.5,0.2-0.7,0.4
			c-1.2,2.2-1.3,2.4-3.6,3.6c-0.3,0.1-0.4,0.4-0.4,0.7c0,0.3,0.2,0.5,0.4,0.7c2.2,1.2,2.4,1.3,3.6,3.6c0.1,0.3,0.4,0.4,0.7,0.4
			c0.3,0,0.5-0.2,0.7-0.4c1.2-2.2,1.3-2.4,3.6-3.6c0.3-0.1,0.4-0.4,0.4-0.7C462,34.6,461.8,34.4,461.6,34.2z"/>
		<path class="st3" d="M452.5,11.1c1.3,0.7,1.4,0.8,2.1,2.1c0.1,0.2,0.2,0.2,0.4,0.2c0.2,0,0.3-0.1,0.4-0.2c0.7-1.3,0.8-1.4,2.1-2.1
			c0.2-0.1,0.2-0.2,0.2-0.4c0-0.2-0.1-0.3-0.2-0.4c-1.3-0.7-1.4-0.8-2.1-2.1c-0.1-0.2-0.2-0.2-0.4-0.2c-0.2,0-0.3,0.1-0.4,0.2
			c-0.7,1.3-0.8,1.4-2.1,2.1c-0.2,0.1-0.2,0.2-0.2,0.4C452.3,10.9,452.4,11,452.5,11.1z"/>
		<path class="st3" d="M435.7,32.3c-1.3-0.7-1.4-0.8-2.1-2.1c-0.1-0.2-0.2-0.2-0.4-0.2c-0.2,0-0.3,0.1-0.4,0.2
			c-0.7,1.3-0.8,1.4-2.1,2.1c-0.2,0.1-0.2,0.2-0.2,0.4c0,0.2,0.1,0.3,0.2,0.4c1.3,0.7,1.4,0.8,2.1,2.1c0.1,0.2,0.2,0.2,0.4,0.2
			c0.2,0,0.3-0.1,0.4-0.2c0.7-1.3,0.8-1.4,2.1-2.1c0.2-0.1,0.2-0.2,0.2-0.4C435.9,32.5,435.8,32.4,435.7,32.3z"/>
	</g>
	<g>
		<path class="st0" d="M283.1,17.1c-2.6,2.6-2.6,6.8,0,9.3c1.2,1.2,2.9,1.9,4.7,1.9c1.8,0,3.4-0.7,4.7-1.9c2.6-2.6,2.6-6.8,0-9.3
			c-1.2-1.2-2.9-1.9-4.7-1.9C286,15.2,284.4,15.9,283.1,17.1z M290.7,24.8c-1.6,1.6-4.3,1.6-5.9,0c-1.6-1.6-1.6-4.3,0-5.9
			c0.8-0.8,1.8-1.2,2.9-1.2c1.1,0,2.2,0.4,2.9,1.2C292.4,20.5,292.4,23.1,290.7,24.8z"/>
		<path class="st0" d="M303.9,20.9l-7.6-7.6c-2.3-2.3-5.3-3.5-8.5-3.5c-3.2,0-6.2,1.2-8.5,3.5c-2.8,2.8-3.9,6.5-3.4,10.1l-2.5-2.5
			c-1.8-1.8-2.8-4.2-2.8-6.7c0-2.5,1-4.9,2.8-6.7c0.5-0.5,0.5-1.3,0-1.7c-0.5-0.5-1.3-0.5-1.7,0c-2.3,2.3-3.5,5.3-3.5,8.5
			c0,3.2,1.2,6.2,3.5,8.5l7.6,7.6c2.3,2.3,5.3,3.5,8.5,3.5c3.2,0,6.2-1.2,8.5-3.5c2.8-2.8,3.9-6.5,3.4-10.1l2.5,2.5
			c3.7,3.7,3.7,9.8,0,13.5c-0.5,0.5-0.5,1.3,0,1.7c0.2,0.2,0.6,0.4,0.9,0.4c0.3,0,0.6-0.1,0.9-0.4C308.6,33.2,308.6,25.6,303.9,20.9
			z M294.6,28.6c-1.8,1.8-4.2,2.8-6.7,2.8c-2.5,0-4.9-1-6.7-2.8c-3.7-3.7-3.7-9.8,0-13.5c1.8-1.8,4.2-2.8,6.7-2.8
			c2.5,0,4.9,1,6.7,2.8C298.3,18.8,298.3,24.8,294.6,28.6z"/>
	</g>
	<g>
		<path class="st5" d="M216.9,18.7c0.2,0.1,0.4,0.1,0.5,0.1c0.5,0,0.9-0.3,1.1-0.7c2.3-4.8,7.2-7.9,12.5-7.9s10.2,3.1,12.5,7.9
			c0.3,0.6,1,0.9,1.6,0.6c0.6-0.3,0.9-1,0.6-1.6c-2.7-5.6-8.5-9.2-14.7-9.2c-6.2,0-12,3.6-14.7,9.2C216,17.7,216.3,18.4,216.9,18.7z
			"/>
		<path class="st2" d="M231,11.7c-4.3,0-8.2,2.1-10.5,5.7c-0.4,0.6-0.2,1.3,0.4,1.7c0.6,0.4,1.3,0.2,1.7-0.4
			c1.9-2.9,5.1-4.6,8.5-4.6c3.4,0,6.6,1.7,8.5,4.6c0.2,0.4,0.6,0.6,1,0.6c0.2,0,0.5-0.1,0.7-0.2c0.6-0.4,0.7-1.1,0.4-1.7
			C239.2,13.8,235.3,11.7,231,11.7z"/>
		<path class="st6" d="M236.5,21c0.3,0.6,1.1,0.8,1.7,0.4c0.6-0.3,0.8-1.1,0.4-1.7c-1.6-2.7-4.5-4.3-7.6-4.3c-3.1,0-6,1.7-7.6,4.3
			c-0.3,0.6-0.1,1.3,0.4,1.7c0.2,0.1,0.4,0.2,0.6,0.2c0.4,0,0.8-0.2,1-0.6c1.1-1.9,3.2-3.1,5.5-3.1C233.2,17.9,235.3,19.1,236.5,21z
			"/>
		<path class="st7" d="M224,25.3c-0.2,0-0.4,0-0.6,0c0-0.2,0.1-0.5,0.1-0.7c0-2.6-2.1-4.7-4.7-4.7c-2.5,0-4.6,2-4.7,4.5
			c-2.4,0.1-4.2,2.1-4.2,4.4c0,2.5,2,4.5,4.5,4.5h9.7c2.2,0,4-1.8,4-4C228,27.1,226.2,25.3,224,25.3z"/>
		<path class="st7" d="M247.9,24.4c-0.1-2.5-2.2-4.5-4.7-4.5c-2.6,0-4.7,2.1-4.7,4.7c0,0.3,0,0.5,0.1,0.7c-0.2,0-0.4,0-0.6,0
			c-2.2,0-4,1.8-4,4c0,2.2,1.8,4,4,4h9.7c2.5,0,4.5-2,4.5-4.5C252.2,26.5,250.3,24.5,247.9,24.4z"/>
	</g>
	<g>
		<path class="st8" d="M59.8,32.4c-0.5-0.2-1,0.1-1.2,0.5l-0.2,0.6c-0.2,0.5,0.1,1,0.5,1.2c0.1,0,0.2,0.1,0.3,0.1
			c0.4,0,0.7-0.2,0.9-0.6l0.2-0.6C60.5,33.1,60.3,32.6,59.8,32.4z"/>
		<path class="st8" d="M58.7,35.5c-0.5-0.2-1,0.1-1.2,0.5l-0.2,0.6c-0.2,0.5,0.1,1,0.5,1.2c0.1,0,0.2,0.1,0.3,0.1
			c0.4,0,0.7-0.2,0.9-0.6l0.2-0.6C59.4,36.2,59.2,35.6,58.7,35.5z"/>
		<path class="st8" d="M57.6,38.5c-0.5-0.2-1,0.1-1.2,0.5l-0.2,0.6c-0.2,0.5,0.1,1,0.5,1.2c0.1,0,0.2,0.1,0.3,0.1
			c0.4,0,0.7-0.2,0.9-0.6l0.2-0.6C58.3,39.2,58,38.7,57.6,38.5z"/>
		<path class="st8" d="M66.8,32.4c-0.5-0.2-1,0.1-1.2,0.5l-0.2,0.6c-0.2,0.5,0.1,1,0.5,1.2c0.1,0,0.2,0.1,0.3,0.1
			c0.4,0,0.7-0.2,0.9-0.6l0.2-0.6C67.5,33.1,67.2,32.6,66.8,32.4z"/>
		<path class="st8" d="M65.6,35.5c-0.5-0.2-1,0.1-1.2,0.5l-0.2,0.6c-0.2,0.5,0.1,1,0.5,1.2c0.1,0,0.2,0.1,0.3,0.1
			c0.4,0,0.7-0.2,0.9-0.6l0.2-0.6C66.3,36.2,66.1,35.6,65.6,35.5z"/>
		<path class="st8" d="M64.5,38.5c-0.5-0.2-1,0.1-1.2,0.5l-0.2,0.6c-0.2,0.5,0.1,1,0.5,1.2c0.1,0,0.2,0.1,0.3,0.1
			c0.4,0,0.7-0.2,0.9-0.6l0.2-0.6C65.2,39.2,65,38.7,64.5,38.5z"/>
		<path class="st8" d="M73.7,32.4c-0.5-0.2-1,0.1-1.2,0.5l-0.2,0.6c-0.2,0.5,0.1,1,0.5,1.2c0.1,0,0.2,0.1,0.3,0.1
			c0.4,0,0.7-0.2,0.9-0.6l0.2-0.6C74.4,33.1,74.2,32.6,73.7,32.4z"/>
		<path class="st8" d="M72.6,35.5c-0.5-0.2-1,0.1-1.2,0.5l-0.2,0.6c-0.2,0.5,0.1,1,0.5,1.2c0.1,0,0.2,0.1,0.3,0.1
			c0.4,0,0.7-0.2,0.9-0.6l0.2-0.6C73.3,36.2,73.1,35.6,72.6,35.5z"/>
		<path class="st8" d="M71.4,38.5c-0.5-0.2-1,0.1-1.2,0.5l-0.2,0.6c-0.2,0.5,0.1,1,0.5,1.2c0.1,0,0.2,0.1,0.3,0.1
			c0.4,0,0.7-0.2,0.9-0.6l0.2-0.6C72.2,39.2,71.9,38.7,71.4,38.5z"/>
		<path class="st8" d="M80.6,32.4c-0.5-0.2-1,0.1-1.2,0.5l-0.2,0.6c-0.2,0.5,0.1,1,0.5,1.2c0.1,0,0.2,0.1,0.3,0.1
			c0.4,0,0.7-0.2,0.9-0.6l0.2-0.6C81.4,33.1,81.1,32.6,80.6,32.4z"/>
		<path class="st8" d="M79.5,35.5c-0.5-0.2-1,0.1-1.2,0.5l-0.2,0.6c-0.2,0.5,0.1,1,0.5,1.2c0.1,0,0.2,0.1,0.3,0.1
			c0.4,0,0.7-0.2,0.9-0.6l0.2-0.6C80.2,36.2,80,35.6,79.5,35.5z"/>
		<path class="st8" d="M78.4,38.5c-0.5-0.2-1,0.1-1.2,0.5L77,39.6c-0.2,0.5,0.1,1,0.5,1.2c0.1,0,0.2,0.1,0.3,0.1
			c0.4,0,0.7-0.2,0.9-0.6l0.2-0.6C79.1,39.2,78.9,38.7,78.4,38.5z"/>
		<path class="st8" d="M87.6,32.4c-0.5-0.2-1,0.1-1.2,0.5l-0.2,0.6c-0.2,0.5,0.1,1,0.5,1.2c0.1,0,0.2,0.1,0.3,0.1
			c0.4,0,0.7-0.2,0.9-0.6l0.2-0.6C88.3,33.1,88.1,32.6,87.6,32.4z"/>
		<path class="st8" d="M86.5,35.5c-0.5-0.2-1,0.1-1.2,0.5l-0.2,0.6c-0.2,0.5,0.1,1,0.5,1.2c0.1,0,0.2,0.1,0.3,0.1
			c0.4,0,0.7-0.2,0.9-0.6l0.2-0.6C87.2,36.2,86.9,35.6,86.5,35.5z"/>
		<path class="st8" d="M85.3,38.5c-0.5-0.2-1,0.1-1.2,0.5L84,39.6c-0.2,0.5,0.1,1,0.5,1.2c0.1,0,0.2,0.1,0.3,0.1
			c0.4,0,0.7-0.2,0.9-0.6l0.2-0.6C86,39.2,85.8,38.7,85.3,38.5z"/>
		<path class="st5" d="M58,15.2c0.2,0.1,0.3,0.1,0.5,0.1c0.4,0,0.9-0.3,1.1-0.7c2.3-4.8,7.2-7.9,12.5-7.9c5.3,0,10.2,3.1,12.5,7.9
			c0.3,0.6,1,0.9,1.6,0.6c0.6-0.3,0.9-1,0.6-1.6C84.2,8,78.4,4.4,72.2,4.4c-6.2,0-12,3.6-14.7,9.2C57.2,14.2,57.4,14.9,58,15.2z"/>
		<path class="st2" d="M81.7,15.8c0.2,0,0.5-0.1,0.7-0.2c0.6-0.4,0.7-1.1,0.4-1.7c-2.3-3.6-6.3-5.7-10.5-5.7
			c-4.3,0-8.2,2.1-10.5,5.7c-0.4,0.6-0.2,1.3,0.4,1.7c0.6,0.4,1.3,0.2,1.7-0.4c1.9-2.9,5.1-4.6,8.5-4.6c3.4,0,6.6,1.7,8.5,4.6
			C80.9,15.6,81.3,15.8,81.7,15.8z"/>
		<path class="st6" d="M72.2,12c-3.1,0-6,1.7-7.6,4.3c-0.3,0.6-0.1,1.3,0.4,1.7c0.2,0.1,0.4,0.2,0.6,0.2c0.4,0,0.8-0.2,1-0.6
			c1.1-1.9,3.2-3.1,5.5-3.1c2.2,0,4.3,1.2,5.5,3.1c0.3,0.6,1.1,0.8,1.7,0.4c0.6-0.3,0.8-1.1,0.4-1.7C78.1,13.6,75.2,12,72.2,12z"/>
		<path class="st0" d="M65.1,21.8c-0.2,0-0.4,0-0.6,0c0-0.2,0.1-0.5,0.1-0.7c0-2.6-2.1-4.7-4.7-4.7c-2.5,0-4.6,2-4.7,4.5
			C52.9,21.1,51,23,51,25.4c0,2.5,2,4.5,4.5,4.5h9.7c2.2,0,4-1.8,4-4C69.1,23.6,67.3,21.8,65.1,21.8z"/>
		<path class="st0" d="M89.1,20.9c-0.1-2.5-2.2-4.5-4.7-4.5c-2.6,0-4.7,2.1-4.7,4.7c0,0.3,0,0.5,0.1,0.7c-0.2,0-0.4,0-0.6,0
			c-2.2,0-4,1.8-4,4c0,2.2,1.8,4,4,4h9.7c2.5,0,4.5-2,4.5-4.5C93.3,23,91.5,21.1,89.1,20.9z"/>
	</g>
	<g>
		<path class="st2" d="M411.5,9.1L411.1,9c-0.2,0-0.5-0.2-0.6-0.4l-0.2-0.4c-0.1-0.2-0.2-0.2-0.3,0l-0.2,0.4
			c-0.1,0.2-0.3,0.4-0.6,0.4l-0.4,0.1c-0.2,0-0.3,0.2-0.1,0.3l0.3,0.3c0.2,0.1,0.2,0.4,0.2,0.6l-0.1,0.4c0,0.2,0.1,0.3,0.3,0.2
			l0.4-0.2c0.2-0.1,0.5-0.1,0.7,0l0.4,0.2c0.2,0.1,0.3,0,0.3-0.2l-0.1-0.4c0-0.2,0.1-0.5,0.2-0.6l0.3-0.3
			C411.7,9.2,411.7,9.1,411.5,9.1z"/>
		<path class="st9" d="M409.8,12.8c-2,0-3.9-1.1-5-2.9c-1-1.8-1-4,0-5.7c0.1-0.2,0.1-0.5,0-0.7c-0.1-0.2-0.4-0.4-0.6-0.4
			c-1.2,0-2.5,0.3-3.6,1c-1.1,0.6-1.9,1.4-2.5,2.4c2.7,1.8,4.6,4.8,4.8,8.3c1.7,0.2,3.3,0.8,4.6,1.8c0.1,0,0.2-0.1,0.3-0.1
			c1.1-0.6,2-1.5,2.6-2.6c0.1-0.2,0.1-0.5,0-0.7C410.3,12.9,410.1,12.8,409.8,12.8z"/>
		<path class="st7" d="M389.3,37.6h-1c-0.5,0-1,0.4-1,1v1c0,0.5,0.4,1,1,1h1c0.5,0,1-0.4,1-1v-1C390.3,38,389.9,37.6,389.3,37.6z"/>
		<path class="st7" d="M387.9,34.6v-1c0-0.5-0.4-1-1-1h-2c-0.5,0-1,0.4-1,1v1c0,0.5,0.4,1,1,1h2C387.4,35.6,387.9,35.2,387.9,34.6z"
			/>
		<path class="st7" d="M397.1,37.6h-2c-0.5,0-1,0.4-1,1v1c0,0.5,0.4,1,1,1h2c0.5,0,1-0.4,1-1v-1C398.1,38,397.7,37.6,397.1,37.6z"/>
		<path class="st7" d="M392.7,32.7h-1c-0.5,0-1,0.4-1,1v1c0,0.5,0.4,1,1,1h1c0.5,0,1-0.4,1-1v-1C393.7,33.1,393.3,32.7,392.7,32.7z"
			/>
		<path class="st1" d="M401.9,16.8c-0.4,0-0.7,0-1.1,0.1c0.1-0.4,0.1-0.9,0.1-1.4c0-4.8-3.9-8.8-8.8-8.8c-4.7,0-8.5,3.7-8.7,8.4
			c-4.4,0.2-7.9,3.8-7.9,8.3c0,4.6,3.7,8.3,8.3,8.3h18c4.1,0,7.5-3.3,7.5-7.5C409.4,20.1,406,16.8,401.9,16.8z M390.3,29.8
			c0,0.5-0.4,1-1,1h-1c-0.5,0-1-0.4-1-1v-1c0-0.5,0.4-1,1-1h1c0.5,0,1,0.4,1,1V29.8z M397.1,29.8c0,0.5-0.4,1-1,1h-1
			c-0.5,0-1-0.4-1-1v-1c0-0.5,0.4-1,1-1h1c0.5,0,1,0.4,1,1V29.8z"/>
		<path class="st7" d="M399.6,32.7h-1c-0.5,0-1,0.4-1,1v1c0,0.5,0.4,1,1,1h1c0.5,0,1-0.4,1-1v-1C400.5,33.1,400.1,32.7,399.6,32.7z"
			/>
	</g>
	<g>
		<path class="st8" d="M165.9,33c-0.6-0.2-1.3,0.2-1.5,0.8l-1.6,5.2c-0.2,0.6,0.2,1.3,0.8,1.5c0.1,0,0.2,0.1,0.4,0.1
			c0.5,0,1-0.3,1.1-0.8l1.6-5.2C166.9,33.8,166.6,33.1,165.9,33z"/>
		<path class="st8" d="M173.2,33c-0.6-0.2-1.3,0.2-1.5,0.8l-1.6,5.2c-0.2,0.6,0.2,1.3,0.8,1.5c0.1,0,0.2,0.1,0.4,0.1
			c0.5,0,1-0.3,1.1-0.8l1.6-5.2C174.2,33.8,173.8,33.1,173.2,33z"/>
		<path class="st8" d="M180.5,33c-0.6-0.2-1.3,0.2-1.5,0.8l-1.6,5.2c-0.2,0.6,0.2,1.3,0.8,1.5c0.1,0,0.2,0.1,0.4,0.1
			c0.5,0,1-0.3,1.1-0.8l1.6-5.2C181.5,33.8,181.1,33.1,180.5,33z"/>
		<path class="st2" d="M192,9.1L191.6,9c-0.2,0-0.5-0.2-0.6-0.4l-0.2-0.4c-0.1-0.2-0.2-0.2-0.3,0l-0.2,0.4C190.3,8.8,190,9,189.8,9
			l-0.4,0.1c-0.2,0-0.3,0.2-0.1,0.3l0.3,0.3c0.2,0.1,0.2,0.4,0.2,0.6l-0.1,0.4c0,0.2,0.1,0.3,0.3,0.2l0.4-0.2c0.2-0.1,0.5-0.1,0.7,0
			l0.4,0.2c0.2,0.1,0.3,0,0.3-0.2l-0.1-0.4c0-0.2,0.1-0.5,0.2-0.6l0.3-0.3C192.3,9.2,192.2,9.1,192,9.1z"/>
		<path class="st9" d="M190.4,12.8c-2,0-3.9-1.1-5-2.9c-1-1.8-1-4,0-5.7c0.1-0.2,0.1-0.5,0-0.7c-0.1-0.2-0.4-0.4-0.6-0.4
			c-1.3,0-2.5,0.3-3.6,1c-1.1,0.6-1.9,1.4-2.5,2.4c2.7,1.8,4.6,4.8,4.8,8.3c1.7,0.2,3.3,0.8,4.6,1.8c0.1,0,0.2-0.1,0.3-0.1
			c1.1-0.6,2-1.5,2.6-2.6c0.1-0.2,0.1-0.5,0-0.7C190.9,12.9,190.6,12.8,190.4,12.8z"/>
		<path class="st0" d="M182.5,16.8c-0.4,0-0.7,0-1.1,0.1c0.1-0.4,0.1-0.9,0.1-1.4c0-4.8-3.9-8.8-8.8-8.8c-4.7,0-8.5,3.7-8.7,8.4
			c-4.4,0.2-7.9,3.8-7.9,8.3c0,4.6,3.7,8.3,8.3,8.3h18c4.1,0,7.5-3.3,7.5-7.5C189.9,20.1,186.6,16.8,182.5,16.8z"/>
	</g>
	<g>
		<g>
			<g>
				<path class="st10" d="M572.9,18.1h-8.8c-2.8,0-5.1-2.3-5.1-5.1c0-2.8,2.3-5.1,5.1-5.1c0.8,0,1.5,0.7,1.5,1.5
					c0,0.8-0.7,1.5-1.5,1.5c-1.2,0-2.1,1-2.1,2.1c0,1.2,1,2.1,2.1,2.1h8.8c0.8,0,1.5,0.7,1.5,1.5C574.3,17.4,573.7,18.1,572.9,18.1z
					"/>
			</g>
			<g>
				<path class="st10" d="M561.2,31.4c-2.8,0-5.1-2.3-5.1-5.1c0-2.8,2.3-5.1,5.1-5.1h4.3c0.8,0,1.5,0.7,1.5,1.5
					c0,0.8-0.7,1.5-1.5,1.5h-4.3c-1.2,0-2.1,1-2.1,2.1c0,1.2,1,2.1,2.1,2.1c0.8,0,1.5,0.7,1.5,1.5C562.7,30.8,562,31.4,561.2,31.4z"
					/>
			</g>
		</g>
		<g>
			<path class="st10" d="M549.1,18.1h-7.3c-0.8,0-1.5-0.7-1.5-1.5c0-0.8,0.7-1.5,1.5-1.5h7.3c0.8,0,1.5,0.7,1.5,1.5
				C550.6,17.4,549.9,18.1,549.1,18.1z"/>
		</g>
		<g>
			<path class="st10" d="M555.2,18.1h-1.9c-0.8,0-1.5-0.7-1.5-1.5c0-0.8,0.7-1.5,1.5-1.5h1.9c0.8,0,1.5,0.7,1.5,1.5
				C556.6,17.4,556,18.1,555.2,18.1z"/>
		</g>
		<g>
			<path class="st10" d="M537.8,18.1h-1.8c-0.8,0-1.5-0.7-1.5-1.5c0-0.8,0.7-1.5,1.5-1.5h1.8c0.8,0,1.5,0.7,1.5,1.5
				C539.2,17.4,538.6,18.1,537.8,18.1z"/>
		</g>
		<g>
			<path class="st10" d="M532.7,25.5h-1.3c-0.8,0-1.5-0.7-1.5-1.5c0-0.8,0.7-1.5,1.5-1.5h1.3c0.8,0,1.5,0.7,1.5,1.5
				C534.2,24.8,533.6,25.5,532.7,25.5z"/>
		</g>
		<g>
			<path class="st10" d="M543.5,25.5h-6.1c-0.8,0-1.5-0.7-1.5-1.5c0-0.8,0.7-1.5,1.5-1.5h6.1c0.8,0,1.5,0.7,1.5,1.5
				C545,24.8,544.3,25.5,543.5,25.5z"/>
		</g>
		<g>
			<path class="st10" d="M551.7,25.5h-2.4c-0.8,0-1.5-0.7-1.5-1.5c0-0.8,0.7-1.5,1.5-1.5h2.4c0.8,0,1.5,0.7,1.5,1.5
				C553.2,24.8,552.5,25.5,551.7,25.5z"/>
		</g>
		<g>
			<path class="st10" d="M538.4,32.9h-4c-0.8,0-1.5-0.7-1.5-1.5c0-0.8,0.7-1.5,1.5-1.5h4c0.8,0,1.5,0.7,1.5,1.5
				C539.9,32.3,539.2,32.9,538.4,32.9z"/>
		</g>
		<g>
			<path class="st10" d="M543.9,32.9h-1.5c-0.8,0-1.5-0.7-1.5-1.5c0-0.8,0.7-1.5,1.5-1.5h1.5c0.8,0,1.5,0.7,1.5,1.5
				C545.3,32.3,544.7,32.9,543.9,32.9z"/>
		</g>
		<g>
			<path class="st10" d="M552.4,32.9h-4.1c-0.8,0-1.5-0.7-1.5-1.5c0-0.8,0.7-1.5,1.5-1.5h4.1c0.8,0,1.5,0.7,1.5,1.5
				C553.9,32.3,553.3,32.9,552.4,32.9z"/>
		</g>
	</g>
	<g>
		<path class="st9" d="M507.8,28c-4.4,0-8.6-2.4-10.8-6.2c-2.2-3.8-2.2-8.6,0-12.5c0.3-0.5,0.3-1.1,0-1.6c-0.3-0.5-0.8-0.8-1.4-0.8
			c-2.7,0-5.4,0.7-7.8,2.1c-7.4,4.3-10,13.9-5.7,21.3c2.8,4.8,8,7.8,13.5,7.8c0,0,0,0,0,0c2.7,0,5.4-0.7,7.8-2.1
			c2.4-1.4,4.3-3.3,5.7-5.7c0.3-0.5,0.3-1.1,0-1.6C508.9,28.3,508.4,28,507.8,28z"/>
		<path class="st2" d="M511.5,19.8l-0.9-0.1c-0.5-0.1-1-0.5-1.2-0.9L509,18c-0.2-0.4-0.5-0.4-0.7,0l-0.4,0.8
			c-0.2,0.4-0.7,0.8-1.2,0.9l-0.9,0.1c-0.5,0.1-0.6,0.4-0.2,0.7l0.7,0.6c0.3,0.3,0.5,1,0.5,1.4l-0.2,0.9c-0.1,0.5,0.2,0.6,0.6,0.4
			l0.8-0.4c0.4-0.2,1.1-0.2,1.5,0l0.8,0.4c0.4,0.2,0.7,0,0.6-0.4l-0.2-0.9c-0.1-0.5,0.1-1.1,0.5-1.4l0.7-0.6
			C512,20.2,511.9,19.9,511.5,19.8z"/>
	</g>
	<g>
		<path class="st2" d="M626.4,10.1h-3c-0.1-0.6-0.2-1.1-0.4-1.6l2.6-1.5c0.5-0.3,0.6-0.9,0.4-1.4c-0.3-0.5-0.9-0.6-1.4-0.4L622,6.7
			c-0.4-0.4-0.8-0.9-1.2-1.2l1.5-2.6c0.3-0.5,0.1-1.1-0.4-1.4c-0.5-0.3-1.1-0.1-1.4,0.4L619,4.5c-0.5-0.2-1.1-0.4-1.6-0.4V1
			c0-0.6-0.4-1-1-1c-0.6,0-1,0.5-1,1v3c-0.6,0.1-1.1,0.2-1.6,0.4l-1.5-2.6c-0.3-0.5-0.9-0.6-1.4-0.4c-0.5,0.3-0.6,0.9-0.4,1.4
			l1.5,2.6c-0.2,0.1-0.3,0.3-0.4,0.4c2.4,2,3.9,4.9,4.1,8.2c2.1,0.2,4,1,5.5,2.3c0.3-0.3,0.6-0.6,0.9-0.9l2.6,1.5
			c0.2,0.1,0.3,0.1,0.5,0.1c0.3,0,0.7-0.2,0.9-0.5c0.3-0.5,0.1-1.1-0.4-1.4l-2.6-1.5c0.2-0.5,0.4-1.1,0.4-1.6h3c0.6,0,1-0.4,1-1
			C627.4,10.5,627,10.1,626.4,10.1z"/>
		<path class="st7" d="M600.3,38.6h-1.1c-0.6,0-1.1,0.5-1.1,1.1v1.1c0,0.6,0.5,1.1,1.1,1.1h1.1c0.6,0,1.1-0.5,1.1-1.1v-1.1
			C601.3,39,600.8,38.6,600.3,38.6z"/>
		<path class="st7" d="M599.7,35.4v-1.1c0-0.6-0.5-1.1-1.1-1.1h-2.1c-0.6,0-1.1,0.5-1.1,1.1v1.1c0,0.6,0.5,1.1,1.1,1.1h2.1
			C599.2,36.4,599.7,36,599.7,35.4z"/>
		<path class="st7" d="M608.7,38.6h-2.1c-0.6,0-1.1,0.5-1.1,1.1v1.1c0,0.6,0.5,1.1,1.1,1.1h2.1c0.6,0,1.1-0.5,1.1-1.1v-1.1
			C609.8,39,609.3,38.6,608.7,38.6z"/>
		<path class="st7" d="M606.1,35.4v-1.1c0-0.6-0.5-1.1-1.1-1.1H604c-0.6,0-1.1,0.5-1.1,1.1v1.1c0,0.6,0.5,1.1,1.1,1.1h1.1
			C605.6,36.4,606.1,36,606.1,35.4z"/>
		<path class="st1" d="M614.7,16c-0.4,0-0.8,0-1.2,0.1c0.1-0.5,0.1-1,0.1-1.5c0-5.2-4.2-9.5-9.5-9.5c-5.1,0-9.3,4-9.5,9.1
			c-4.8,0.2-8.5,4.2-8.5,9c0,5,4,9,9,9h19.5c4.5,0,8.1-3.6,8.1-8.1C622.8,19.6,619.2,16,614.7,16z M603.4,30.1
			c0,0.6-0.5,1.1-1.1,1.1h-1.1c-0.6,0-1.1-0.5-1.1-1.1V29c0-0.6,0.5-1.1,1.1-1.1h1.1c0.6,0,1.1,0.5,1.1,1.1V30.1z M610.8,30.1
			c0,0.6-0.5,1.1-1.1,1.1h-1.1c-0.6,0-1.1-0.5-1.1-1.1V29c0-0.6,0.5-1.1,1.1-1.1h1.1c0.6,0,1.1,0.5,1.1,1.1V30.1z"/>
		<path class="st7" d="M612.4,33.3h-1.1c-0.6,0-1.1,0.5-1.1,1.1v1.1c0,0.6,0.5,1.1,1.1,1.1h1.1c0.6,0,1.1-0.5,1.1-1.1v-1.1
			C613.5,33.7,613,33.3,612.4,33.3z"/>
	</g>
	<g>
		<path class="st2" d="M681.9,10h-3c-0.1-0.6-0.2-1.1-0.4-1.6l2.6-1.5c0.5-0.3,0.6-0.9,0.4-1.4c-0.3-0.5-0.9-0.6-1.4-0.4l-2.6,1.5
			c-0.3-0.4-0.7-0.8-1.2-1.2l1.5-2.6c0.3-0.5,0.1-1.1-0.4-1.4c-0.5-0.3-1.1-0.1-1.4,0.4l-1.5,2.6c-0.5-0.2-1.1-0.4-1.6-0.4V1
			c0-0.6-0.4-1-1-1c-0.6,0-1,0.4-1,1v3c-0.6,0.1-1.1,0.2-1.6,0.4l-1.5-2.6c-0.3-0.5-0.9-0.6-1.4-0.4c-0.5,0.3-0.6,0.9-0.4,1.4
			l1.5,2.6c-0.2,0.1-0.3,0.3-0.4,0.4c2.3,2,3.9,4.9,4,8.2c2.1,0.2,3.9,1,5.4,2.2c0.3-0.3,0.6-0.6,0.9-0.9l2.6,1.5
			c0.2,0.1,0.3,0.1,0.5,0.1c0.3,0,0.7-0.2,0.9-0.5c0.3-0.5,0.1-1.1-0.4-1.4l-2.6-1.5c0.2-0.5,0.4-1.1,0.4-1.6h3c0.6,0,1-0.4,1-1
			C682.9,10.4,682.4,10,681.9,10z"/>
		<path class="st0" d="M670.3,15.9c-0.4,0-0.8,0-1.2,0.1c0.1-0.5,0.1-1,0.1-1.5c0-5.2-4.2-9.4-9.4-9.4c-5.1,0-9.2,4-9.4,9
			c-4.7,0.2-8.5,4.1-8.5,8.9c0,4.9,4,8.9,8.9,8.9h19.4c4.4,0,8-3.6,8-8C678.3,19.4,674.7,15.9,670.3,15.9z"/>
		<path class="st8" d="M652.5,33.6c-0.7-0.2-1.4,0.2-1.6,0.8l-1.7,5.6c-0.2,0.7,0.2,1.4,0.8,1.6c0.1,0,0.3,0.1,0.4,0.1
			c0.5,0,1.1-0.4,1.2-0.9l1.7-5.6C653.6,34.5,653.2,33.8,652.5,33.6z"/>
		<path class="st8" d="M660.4,33.6c-0.7-0.2-1.4,0.2-1.6,0.8l-1.7,5.6c-0.2,0.7,0.2,1.4,0.8,1.6c0.1,0,0.3,0.1,0.4,0.1
			c0.5,0,1.1-0.4,1.2-0.9l1.7-5.6C661.4,34.5,661,33.8,660.4,33.6z"/>
		<path class="st8" d="M668.2,33.6c-0.7-0.2-1.4,0.2-1.6,0.8l-1.7,5.6c-0.2,0.7,0.2,1.4,0.8,1.6c0.1,0,0.3,0.1,0.4,0.1
			c0.5,0,1.1-0.4,1.2-0.9l1.7-5.6C669.3,34.5,668.9,33.8,668.2,33.6z"/>
	</g>
	<path class="st1" d="M709.7,6c-9.7,0-17.5,7.8-17.5,17.5c0,9.7,7.8,17.5,17.5,17.5c9.7,0,17.5-7.8,17.5-17.5
		C727.2,13.8,719.4,6,709.7,6z M709.7,36.6c-7.2,0-13.1-5.9-13.1-13.1c0-7.2,5.9-13.1,13.1-13.1c0.8,0,1.5,0.1,2.3,0.2
		c-4.3,2.7-7.1,7.5-7.1,12.9c0,5.4,2.8,10.2,7.1,12.9C711.2,36.5,710.5,36.6,709.7,36.6z"/>
	<g>
		<path class="st10" d="M773.9,22.7c0-0.8-0.6-1.4-1.4-1.4H748c-1.1,0-2.1-0.9-2.1-2.1c0-1.2,0.9-2.1,2.1-2.1c0.8,0,1.4-0.6,1.4-1.4
			c0-0.8-0.6-1.4-1.4-1.4c-2.7,0-5,2.2-5,5c0,2.7,2.2,5,5,5h24.4C773.2,24.2,773.9,23.5,773.9,22.7z"/>
		<path class="st10" d="M763.9,18.4h11.4c0.8,0,1.4-0.7,1.4-1.4c0-0.8-0.6-1.4-1.4-1.4h-11.4c-1.1,0-2.1-0.9-2.1-2.1
			c0-1.1,0.9-2.1,2.1-2.1c0.8,0,1.4-0.6,1.4-1.4c0-0.8-0.6-1.4-1.4-1.4c-2.7,0-5,2.2-5,5C758.9,16.2,761.2,18.4,763.9,18.4z"/>
		<path class="st10" d="M775.6,27.1h-20.1c-2.7,0-5,2.2-5,5c0,2.7,2.2,5,5,5c0.8,0,1.4-0.7,1.4-1.4c0-0.8-0.6-1.4-1.4-1.4
			c-1.1,0-2.1-0.9-2.1-2.1c0-1.2,0.9-2.1,2.1-2.1h20.1c0.8,0,1.4-0.6,1.4-1.4C777.1,27.7,776.4,27.1,775.6,27.1z"/>
	</g>
</g>
</svg>
