<?xml version="1.0" encoding="utf-8"?>
<!-- Generator: Adobe Illustrator 19.1.0, SVG Export Plug-In . SVG Version: 6.00 Build 0)  -->
<svg version="1.1" id="Layer_1" xmlns="http://www.w3.org/2000/svg" xmlns:xlink="http://www.w3.org/1999/xlink" x="0px" y="0px"
	 viewBox="-2 4.1 93.9 93.9" style="enable-background:new -2 4.1 93.9 93.9;" xml:space="preserve">
<style type="text/css">
	.st0{fill:#F4EEEC;}
	.st1{font-family:'OriyaSangamMN';}
	.st2{font-size:44px;}
	.st3{fill:#66C1B0;}
	.st4{fill:#86C35A;}
	.st5{fill:#EE9640;}
	.st6{fill:#DF7C76;}
	.st7{fill:#984194;}
</style>
<circle cx="44.9" cy="51" r="46.9"/>
<text transform="matrix(1 0 0 1 20.2388 50.5178)" class="st0 st1 st2">UV</text>
<g>
	<path class="st3" d="M17,72l-0.1-12.5c0-2,1.6-3.6,3.6-3.6l0,0c2,0,3.6,1.6,3.6,3.6L24.2,72c0,2-1.6,3.6-3.6,3.6l0,0
		C18.6,75.6,17,74,17,72z"/>
	<path class="st4" d="M29.2,72l-0.1-12.5c0-2,1.6-3.6,3.6-3.6l0,0c2,0,3.6,1.6,3.6,3.6L36.4,72c0,2-1.6,3.6-3.6,3.6l0,0
		C30.9,75.6,29.2,74,29.2,72z"/>
	<path class="st5" d="M41.5,72l-0.1-12.5c0-2,1.6-3.6,3.6-3.6l0,0c2,0,3.6,1.6,3.6,3.6L48.7,72c0,2-1.6,3.6-3.6,3.6l0,0
		C43.1,75.6,41.5,74,41.5,72z"/>
	<path class="st6" d="M53.9,72l-0.1-12.5c0-2,1.6-3.6,3.6-3.6l0,0c2,0,3.6,1.6,3.6,3.6V72c0,2-1.6,3.6-3.6,3.6l0,0
		C55.5,75.6,53.9,74,53.9,72z"/>
	<path class="st7" d="M65.2,72l-0.1-12.5c0-2,1.6-3.6,3.6-3.6l0,0c2,0,3.6,1.6,3.6,3.6L72.4,72c0,2-1.6,3.6-3.6,3.6l0,0
		C66.8,75.6,65.2,74,65.2,72z"/>
</g>
</svg>
